<svg width="927" height="633" viewBox="0 0 927 633" fill="none" xmlns="http://www.w3.org/2000/svg">
<path d="M394.102 0H158.936V235.484H394.102V0Z" fill="#D7D7E1"/>
<path d="M573.891 0H394.101V235.484H573.891V0Z" fill="#738296"/>
<path d="M571.801 3.2124L396.535 231.298" stroke="#283C55" stroke-width="3" stroke-miterlimit="10" stroke-linecap="round"/>
<path d="M571.801 231.298L396.535 3.2124" stroke="#283C55" stroke-width="3" stroke-miterlimit="10" stroke-linecap="round"/>
<path d="M395.073 233.654V1.5H572.77V233.654H395.073Z" stroke="#283C55" stroke-width="3" stroke-miterlimit="10" stroke-linecap="round"/>
<path d="M366.397 155.699C371.309 144.125 364.085 129.046 349.611 118.176C364.092 107.161 371.271 92.5563 366.564 80.7877C361.858 69.0192 346.277 63.5627 328.151 65.9211C330.577 48.0739 325.322 32.1503 313.699 27.6027C302.125 22.6907 287.046 29.915 276.176 44.3886C265.161 29.9077 250.556 22.7291 238.788 27.4356C227.019 32.1422 221.563 47.7227 223.921 65.8493C206.074 63.4232 190.15 68.6778 185.603 80.3013C180.691 91.8752 187.915 106.954 202.389 117.824C187.908 128.839 180.729 143.444 185.436 155.212C190.142 166.981 205.723 172.437 223.849 170.079C221.423 187.926 226.678 203.85 238.301 208.397C249.875 213.309 264.954 206.085 275.824 191.611C286.839 206.092 301.444 213.271 313.212 208.564C324.981 203.858 330.437 188.277 328.079 170.151C345.926 172.577 361.436 167.637 366.397 155.699ZM264.183 146.256C248.752 139.707 241.195 121.615 247.744 106.183C254.293 90.7515 272.385 83.1949 287.817 89.7441C303.248 96.2933 310.805 114.385 304.256 129.817C297.707 145.248 279.615 152.805 264.183 146.256Z" fill="#283C55"/>
<path d="M158.935 186.875H0V235.484H158.935V186.875Z" fill="#FA0A32"/>
<path d="M158.935 90.017H0V138.626H158.935V90.017Z" fill="#FA0A32"/>
<path d="M927 0H573.892V235.484H927V0Z" fill="#FA0A32"/>
<path d="M157.801 305.387V480.827H760.536V0" stroke="#D7D7E1" stroke-width="3" stroke-miterlimit="10"/>
<path d="M158.569 235.154L199.202 306.087H117.577L158.569 235.154Z" fill="#D7D7E1"/>
<path d="M636.979 528.533C643.173 513.94 634.064 494.928 615.814 481.222C634.073 467.333 643.124 448.919 637.19 434.08C631.255 419.242 611.611 412.362 588.755 415.335C591.814 392.832 585.189 372.755 570.533 367.021C555.94 360.827 536.928 369.936 523.222 388.186C509.333 369.927 490.919 360.876 476.08 366.81C461.242 372.745 454.362 392.389 457.335 415.245C434.832 412.186 414.755 418.811 409.021 433.467C402.827 448.06 411.936 467.072 430.186 480.778C411.927 494.667 402.876 513.081 408.81 527.92C414.745 542.758 434.389 549.638 457.245 546.665C454.186 569.168 460.811 589.245 475.467 594.979C490.06 601.173 509.072 592.064 522.778 573.814C536.667 592.073 555.081 601.124 569.92 595.19C584.758 589.255 591.638 569.611 588.665 546.755C611.168 549.814 630.724 543.586 636.979 528.533ZM508.101 516.627C488.643 508.369 479.115 485.559 487.373 466.101C495.631 446.643 518.441 437.115 537.899 445.373C557.357 453.631 566.885 476.441 558.627 495.899C550.369 515.357 527.559 524.885 508.101 516.627Z" fill="#FA0A32"/>
<g filter="url(#filter0_bd_457_2753)">
<ellipse cx="400.5" cy="478.5" rx="122.5" ry="122.5" transform="rotate(90 400.5 478.5)" fill="#E7E7E7" fill-opacity="0.3" shape-rendering="crispEdges"/>
<path d="M400.5 600C333.397 600 279 545.603 279 478.5C279 411.397 333.397 357 400.5 357C467.603 357 522 411.397 522 478.5C522 545.603 467.603 600 400.5 600Z" stroke="url(#paint0_linear_457_2753)" stroke-width="2" shape-rendering="crispEdges"/>
<path d="M400.5 600C333.397 600 279 545.603 279 478.5C279 411.397 333.397 357 400.5 357C467.603 357 522 411.397 522 478.5C522 545.603 467.603 600 400.5 600Z" stroke="url(#paint1_linear_457_2753)" stroke-opacity="0.2" stroke-width="2" shape-rendering="crispEdges"/>
</g>
<defs>
<filter id="filter0_bd_457_2753" x="246" y="324" width="309" height="309" filterUnits="userSpaceOnUse" color-interpolation-filters="sRGB">
<feFlood flood-opacity="0" result="BackgroundImageFix"/>
<feGaussianBlur in="BackgroundImageFix" stdDeviation="16"/>
<feComposite in2="SourceAlpha" operator="in" result="effect1_backgroundBlur_457_2753"/>
<feColorMatrix in="SourceAlpha" type="matrix" values="0 0 0 0 0 0 0 0 0 0 0 0 0 0 0 0 0 0 127 0" result="hardAlpha"/>
<feOffset/>
<feGaussianBlur stdDeviation="16"/>
<feComposite in2="hardAlpha" operator="out"/>
<feColorMatrix type="matrix" values="0 0 0 0 0 0 0 0 0 0 0 0 0 0 0 0 0 0 0.1 0"/>
<feBlend mode="normal" in2="effect1_backgroundBlur_457_2753" result="effect2_dropShadow_457_2753"/>
<feBlend mode="normal" in="SourceGraphic" in2="effect2_dropShadow_457_2753" result="shape"/>
</filter>
<linearGradient id="paint0_linear_457_2753" x1="456.067" y1="783.487" x2="319.044" y2="385.046" gradientUnits="userSpaceOnUse">
<stop stop-color="white"/>
<stop offset="1" stop-color="white" stop-opacity="0"/>
</linearGradient>
<linearGradient id="paint1_linear_457_2753" x1="304.422" y1="315.767" x2="340.451" y2="478.5" gradientUnits="userSpaceOnUse">
<stop stop-color="#738296"/>
<stop offset="0.641627" stop-color="#738296" stop-opacity="0"/>
</linearGradient>
</defs>
</svg>
