<svg width="128" height="32" viewBox="0 0 128 32" fill="none" xmlns="http://www.w3.org/2000/svg">
<g clip-path="url(#clip0_368_270)">
<path d="M43.3876 17.8207C42.7031 16.8574 40.6926 16.7368 38.9951 17.3924C38.6451 15.6003 37.4749 13.9489 36.263 13.8886C35.0882 13.8283 33.7499 15.3235 33.2057 17.0584C31.5991 16.2358 29.6117 16.1337 28.8146 17.0368C28.033 17.9228 28.366 19.9097 29.3836 21.4204C27.7215 22.1611 26.3802 23.6687 26.5883 24.8655C26.7903 26.0299 28.5448 27.0086 30.3549 27.154C29.9078 28.9105 30.247 30.8805 31.3031 31.4603C32.3361 32.0278 34.1878 31.264 35.432 29.9388C36.522 31.3861 38.272 32.351 39.382 31.884C40.4706 31.4279 41.0333 29.4904 40.7712 27.6874C42.5828 27.74 44.4329 26.97 44.7644 25.8056C45.0867 24.6722 43.938 23.0301 42.3777 22.1085C43.5387 20.72 44.086 18.801 43.3876 17.8207ZM38.3244 23.0981C38.4138 24.5501 37.3083 25.8041 35.8606 25.8938C34.4129 25.9835 33.1625 24.8748 33.0731 23.4228C32.9836 21.9709 34.0891 20.7169 35.5368 20.6272C36.9861 20.5375 38.235 21.6462 38.3244 23.0981ZM50.4367 6.80047C50.6895 5.85415 50.5893 5.10112 50.1206 4.6326C49.4006 3.91049 48.0068 4.06357 46.2646 5.04236C45.2424 3.32136 44.1123 2.49102 43.1286 2.75543C42.1449 3.01984 41.5806 4.30634 41.5544 6.30875C39.5578 6.33659 38.275 6.90252 38.0129 7.89058C37.7493 8.8771 38.5772 10.0105 40.2948 11.0341C39.3204 12.783 39.1677 14.1793 39.8893 14.9014C40.6093 15.6235 42.0015 15.4704 43.7453 14.4916C44.7675 16.2126 45.8976 17.0429 46.8813 16.777C47.865 16.5126 48.4293 15.2261 48.4555 13.2237C50.4536 13.1958 51.7349 12.6299 51.997 11.6418C52.2606 10.6553 51.4327 9.5219 49.7151 8.49827C50.0589 7.88595 50.2994 7.31383 50.4367 6.80047ZM47.054 10.3182C46.7518 11.4516 45.5862 12.1258 44.4576 11.8227C43.3275 11.5197 42.6553 10.3507 42.9575 9.21883C43.2596 8.08541 44.4237 7.41124 45.5538 7.71431C46.6824 8.01738 47.3562 9.18481 47.054 10.3182ZM24.7628 15.4735C26.855 14.1019 28.3429 11.9171 27.9112 10.3028C27.4887 8.72711 25.1205 7.56587 22.6228 7.41588C23.1347 4.96195 22.6475 2.36113 21.2028 1.52615C19.7936 0.711264 17.3006 1.56944 15.4288 3.23477C14.0613 1.13494 11.8827 -0.358753 10.2716 0.0757481C8.70202 0.499425 7.54259 2.87449 7.39304 5.37945C4.94622 4.86609 2.35294 5.35471 1.52037 6.80356C0.707848 8.21685 1.56354 10.7172 3.22405 12.5943C1.13184 13.9659 -0.357527 16.1507 0.0757152 17.7666C0.496623 19.3422 2.86635 20.5035 5.36405 20.6535C4.85217 23.1074 5.33938 25.7067 6.78403 26.5432C8.19323 27.3581 10.6863 26.4999 12.5596 24.8346C13.9271 26.9329 16.1057 28.4266 17.7153 27.9921C19.2864 27.5699 20.4443 25.1933 20.5938 22.6899C23.0406 23.2033 25.6339 22.7147 26.4665 21.2658C27.2775 19.8525 26.4218 17.3507 24.7628 15.4735ZM18.4338 13.771C18.5849 16.2961 16.6592 18.4717 14.1414 18.6232C11.6237 18.7748 9.45441 16.8435 9.30331 14.32C9.15222 11.7949 11.0779 9.61777 13.5957 9.46623C16.1118 9.31624 18.2827 11.246 18.4338 13.771ZM58.0824 8.36993C58.1441 7.87048 58.0469 7.31073 57.8141 6.83139C57.5674 6.32267 57.2128 6.00259 56.8413 5.95466C56.7349 5.94074 56.6223 5.95002 56.5067 5.98094C55.8252 6.1634 55.1515 7.0757 55.0312 7.97408C54.4839 7.7174 53.7839 7.65555 53.198 7.81172C52.7848 7.92306 52.4857 8.13489 52.3562 8.41013C52.037 9.08585 52.7339 10.2919 53.7145 10.762C52.8912 11.6434 52.7971 12.9747 53.2998 13.451C53.5804 13.7169 54.0922 13.7819 54.6704 13.6272C55.1607 13.4958 55.6263 13.2252 55.9516 12.8835C56.4296 13.7509 57.4919 14.3694 58.1888 14.1823C58.2535 14.1653 58.3167 14.1406 58.3722 14.1097C59.026 13.7509 59.1694 12.3639 58.6529 11.4053C58.7068 11.3944 58.7623 11.3821 58.8163 11.3681C59.7414 11.1192 60.705 10.2394 60.5631 9.47551C60.4228 8.73794 59.1509 8.17355 58.0824 8.36993ZM56.6054 11.3913C55.9917 11.5568 55.3611 11.1903 55.1962 10.5749C55.0312 9.95949 55.3966 9.32707 56.0102 9.16162C56.6239 8.99617 57.2545 9.36263 57.4194 9.97805C57.5829 10.5935 57.219 11.2259 56.6054 11.3913Z" fill="#FA0A32"/>
<path d="M69.0044 12.7459L67.6568 12.7521L67.6476 10.7636C66.8243 10.6491 66.1813 10.3414 65.708 9.8389C65.2347 9.33637 64.9973 8.72714 64.9942 8.00812C64.9911 7.28911 65.2239 6.67679 65.6926 6.17116C66.1613 5.66553 66.8011 5.35164 67.6245 5.22948L67.6152 3.10027L68.9627 3.09409L68.972 5.22329C69.7953 5.33772 70.4382 5.64543 70.9115 6.14796C71.3849 6.6505 71.6223 7.25973 71.6254 7.97874C71.6285 8.69776 71.3957 9.31008 70.927 9.81571C70.4583 10.3213 69.8184 10.6352 68.9951 10.7574L69.0044 12.7459ZM67.643 9.4446L67.6306 6.54845C66.8089 6.734 66.3509 7.2721 66.354 8.00194C66.3571 8.72095 66.8196 9.26524 67.643 9.4446ZM68.9905 9.42759C69.8123 9.24204 70.2594 8.70394 70.2563 7.98493C70.2532 7.25509 69.8015 6.72163 68.9781 6.54226L68.9905 9.42759Z" fill="#283C55"/>
<path d="M76.4988 5.27742L77.8787 5.27123L77.9018 10.6337L76.5219 10.6399L76.5188 10.0074C76.1041 10.5347 75.5275 10.7945 74.7797 10.7976C74.0628 10.8007 73.4522 10.5347 72.9373 9.99044C72.4331 9.44615 72.1725 8.77043 72.1695 7.9772C72.1664 7.18396 72.4192 6.51752 72.9203 5.9686C73.4306 5.41967 74.0396 5.13825 74.7566 5.13516C75.5043 5.13207 76.0841 5.3872 76.5034 5.91139L76.4988 5.27742ZM75.031 9.47708C75.4581 9.47553 75.8112 9.33482 76.0871 9.05495C76.3755 8.76425 76.5127 8.39933 76.5111 7.95864C76.5096 7.5195 76.3693 7.15458 76.0794 6.8778C75.8004 6.5902 75.4473 6.45103 75.0187 6.45258C74.5916 6.45413 74.2385 6.59484 73.9626 6.88553C73.685 7.16541 73.5478 7.53033 73.5494 7.97101C73.5509 8.41015 73.6912 8.77507 73.9703 9.06268C74.2493 9.34101 74.6024 9.47862 75.031 9.47708Z" fill="#283C55"/>
<path d="M89.9402 5.89591C90.4551 6.4402 90.7157 7.10509 90.7188 7.89833C90.7219 8.69156 90.469 9.36883 89.9571 9.91775C89.4576 10.4667 88.8378 10.7373 88.1209 10.7404C87.3731 10.7435 86.7934 10.4883 86.3848 9.96569L86.3971 12.7428L85.0172 12.749L84.9849 5.24184L86.3648 5.23566L86.3678 5.86808C86.7718 5.3408 87.3484 5.08103 88.0977 5.07794C88.8147 5.07484 89.436 5.35163 89.9402 5.89591ZM87.8588 9.42295C88.2858 9.4214 88.6389 9.28069 88.9149 9.00082C89.2032 8.71012 89.3404 8.3452 89.3389 7.90451C89.3373 7.46537 89.197 7.10045 88.9056 6.82367C88.6266 6.53607 88.2735 6.3969 87.8449 6.39845C87.4178 6.4 87.0647 6.54071 86.7887 6.8314C86.5112 7.11128 86.374 7.4762 86.3756 7.91688C86.3771 8.35602 86.5174 8.72094 86.7965 9.00855C87.0786 9.28688 87.4317 9.42449 87.8588 9.42295Z" fill="#283C55"/>
<path d="M102.515 10.5301L100.912 10.5363L98.9552 8.11018L98.9645 10.544L97.5861 10.5502L97.563 5.18773L98.9429 5.1831L98.9521 7.54115L100.782 5.17536L102.429 5.16763L100.29 7.82567L102.515 10.5301Z" fill="#283C55"/>
<path d="M106.78 5.14906L108.159 5.14287L108.183 10.5053L106.803 10.5115L106.8 9.87909C106.385 10.4064 105.808 10.6661 105.06 10.6692C104.344 10.6723 103.733 10.4064 103.218 9.86208C102.714 9.3178 102.453 8.64208 102.45 7.84884C102.447 7.05561 102.7 6.38917 103.201 5.84024C103.711 5.29132 104.32 5.0099 105.037 5.0068C105.785 5.00371 106.365 5.25884 106.784 5.78148L106.78 5.14906ZM105.312 9.34872C105.739 9.34717 106.092 9.20646 106.368 8.92659C106.656 8.63589 106.793 8.27097 106.792 7.83029C106.79 7.39115 106.65 7.02623 106.36 6.74945C106.081 6.46029 105.728 6.32268 105.299 6.32422C104.872 6.32577 104.519 6.46648 104.243 6.75718C103.966 7.03705 103.829 7.40197 103.83 7.84266C103.832 8.2818 103.972 8.64672 104.251 8.93432C104.53 9.21265 104.883 9.35027 105.312 9.34872Z" fill="#283C55"/>
<path d="M70.1896 14.9648L70.2128 20.3272L68.8329 20.3319L68.8159 16.2683L66.6882 16.2776L66.7052 20.3412L65.3253 20.3473L65.3037 14.9849L70.1896 14.9648Z" fill="#283C55"/>
<path d="M73.873 20.4618C73.082 20.4648 72.4067 20.2004 71.8594 19.6546C71.3121 19.1103 71.0422 18.4361 71.0376 17.6429C71.0345 16.8497 71.2997 16.1832 71.8424 15.6343C72.3851 15.0854 73.0574 14.804 73.8498 14.8009C74.6408 14.7978 75.3161 15.073 75.8634 15.6188C76.4107 16.1631 76.6914 16.828 76.696 17.6213C76.6991 18.4145 76.4246 19.0918 75.8804 19.6407C75.3361 20.1865 74.6639 20.4571 73.873 20.4618ZM73.8668 19.1103C74.2831 19.1088 74.6254 18.9681 74.9029 18.6882C75.1804 18.4083 75.3176 18.0542 75.3161 17.6244C75.3145 17.1945 75.1742 16.8419 74.8952 16.5636C74.6161 16.2853 74.2738 16.1477 73.856 16.1492C73.4397 16.1508 73.0975 16.2915 72.8199 16.5713C72.5532 16.8512 72.416 17.2053 72.4175 17.6352C72.4191 18.0635 72.5594 18.4176 72.8292 18.6944C73.1067 18.9742 73.4505 19.1119 73.8668 19.1103Z" fill="#283C55"/>
<path d="M81.3569 18.8212C81.36 19.7335 80.5721 20.4339 79.203 20.4386C78.1222 20.4432 77.3837 20.018 76.9844 19.1613L78.1037 18.4918C78.2764 18.9727 78.6418 19.2186 79.2076 19.2155C79.721 19.2139 80.0094 18.9974 80.0078 18.6542C80.0063 18.3217 79.792 18.1625 79.3741 18.164L78.6156 18.1671L78.611 16.9873L79.1876 16.9842C79.6054 16.9827 79.8074 16.8203 79.8058 16.4879C79.8043 16.1771 79.536 15.9745 79.1413 15.976C78.6819 15.9776 78.3504 16.2049 78.15 16.6564L77.0353 16.0178C77.4377 15.1905 78.1315 14.7792 79.1151 14.7761C79.7241 14.773 80.2175 14.9323 80.5706 15.2416C80.936 15.5508 81.1195 15.925 81.121 16.3657C81.1225 16.8914 80.9329 17.278 80.5382 17.5486C81.0855 17.8146 81.3553 18.2305 81.3569 18.8212Z" fill="#283C55"/>
<path d="M85.657 14.8983L87.0369 14.8921L87.06 20.2545L85.6801 20.2607L85.677 19.6608C85.3471 20.1664 84.8136 20.4154 84.0859 20.4184C83.4985 20.4215 83.0159 20.2298 82.6289 19.8355C82.2527 19.4397 82.0585 18.9047 82.0554 18.2073L82.0415 14.9153L83.4214 14.9091L83.4353 18.0295C83.4384 18.7485 83.8562 19.132 84.4991 19.1289C85.216 19.1258 85.674 18.6835 85.6693 17.7944L85.657 14.8983Z" fill="#283C55"/>
<path d="M96.1104 16.9131L96.1243 20.2159L94.7444 20.2221L94.7305 17.0151C94.7274 16.3719 94.3944 15.9977 93.8286 16.0008C93.198 16.0039 92.8357 16.4337 92.8388 17.2161L92.8511 20.2298L91.4712 20.236L91.4573 17.029C91.4542 16.3858 91.1212 16.0116 90.5554 16.0147C89.9464 16.0178 89.5517 16.4476 89.5547 17.2301L89.5671 20.2437L88.1872 20.2499L88.1641 14.8875L89.544 14.8813L89.547 15.4503C89.8662 14.9663 90.3565 14.7282 91.0302 14.7251C91.6824 14.722 92.1758 14.9771 92.4872 15.4905C92.8372 14.9741 93.3707 14.7143 94.0768 14.7112C95.3102 14.7081 96.1043 15.5725 96.1104 16.9131Z" fill="#283C55"/>
<path d="M100.71 14.8349L102.09 14.8287L102.113 20.1912L100.733 20.1973L100.73 19.5974C100.4 20.103 99.8663 20.352 99.1401 20.3551C98.5527 20.3582 98.0701 20.1664 97.6831 19.7706C97.3069 19.3747 97.1127 18.8397 97.1096 18.1424L97.0957 14.8504L98.4756 14.8442L98.4895 17.9645C98.4926 18.6835 98.9104 19.067 99.5533 19.0639C100.27 19.0608 100.728 18.6186 100.724 17.7295L100.71 14.8349Z" fill="#283C55"/>
<path d="M107.834 18.6433C107.839 19.5448 107.199 20.1695 106.055 20.1741L103.243 20.1865L103.22 14.8241L105.818 14.8132C106.94 14.8086 107.595 15.4178 107.598 16.3177C107.6 16.7894 107.43 17.1543 107.079 17.4249C107.585 17.6692 107.833 18.0759 107.834 18.6433ZM104.519 15.9559L104.524 16.9208L105.7 16.9162C106.097 16.9146 106.288 16.7522 106.286 16.4306C106.285 16.109 106.092 15.9482 105.696 15.9513L104.519 15.9559ZM105.89 19.0067C106.286 19.0052 106.488 18.832 106.487 18.4903C106.485 18.1903 106.26 18.0094 105.885 18.0109L104.527 18.0171L104.532 19.0144L105.89 19.0067Z" fill="#283C55"/>
<path d="M112.127 14.7869L113.507 14.7808L113.53 20.1432L112.15 20.1479L112.141 18.1114L110.013 18.1207L110.022 20.1571L108.642 20.1633L108.621 14.8009L109.999 14.7962L110.008 16.8218L112.136 16.8141L112.127 14.7869Z" fill="#283C55"/>
<path d="M117.062 16.4817C118.271 16.477 119.086 17.1914 119.091 18.2954C119.095 19.3995 118.286 20.1216 117.077 20.1278L114.661 20.1386L114.638 14.7761L116.018 14.7699L116.026 16.4863L117.062 16.4817ZM117.082 18.9047C117.467 18.9031 117.743 18.6557 117.742 18.3016C117.74 17.9475 117.461 17.6924 117.076 17.6939L116.027 17.6986L116.032 18.9108L117.082 18.9047ZM119.663 14.7545L121.043 14.7483L121.066 20.1107L119.686 20.1169L119.663 14.7545Z" fill="#283C55"/>
<path d="M127.111 20.0845L125.517 20.0922L124.356 18.4671L123.197 20.1015L121.604 20.1077L123.548 17.3661L121.667 14.7468L123.26 14.739L124.347 16.2466L125.42 14.7298L127.002 14.7236L125.142 17.3476L127.111 20.0845Z" fill="#283C55"/>
<path d="M75.2763 28.507C75.2794 29.4193 74.4915 30.1197 73.1224 30.1244C72.0432 30.129 71.3031 29.7022 70.9038 28.8471L72.0231 28.1776C72.1958 28.66 72.5612 28.9044 73.1271 28.9028C73.6405 28.9013 73.9288 28.6848 73.9272 28.3415C73.9257 28.0091 73.7114 27.8498 73.2936 27.8514L72.535 27.8544L72.5304 26.6746L73.107 26.6716C73.5248 26.67 73.7268 26.5076 73.7253 26.1752C73.7237 25.8644 73.4555 25.6618 73.0608 25.6634C72.6013 25.6649 72.2698 25.8922 72.0694 26.3437L70.9547 25.7051C71.3571 24.8779 72.0509 24.4666 73.0346 24.4635C73.6436 24.4604 74.1369 24.6197 74.4915 24.9289C74.8569 25.2382 75.0404 25.6124 75.042 26.053C75.0435 26.5788 74.8539 26.9653 74.4592 27.2359C75.005 27.5003 75.2732 27.9163 75.2763 28.507Z" fill="#283C55"/>
<path d="M81.6207 24.5764L81.6439 29.9373L80.3071 29.9435L80.2948 26.8123L78.9457 28.9631H78.7746L77.3962 26.803L77.4101 29.9558L76.0842 29.962L76.061 24.5996L77.4194 24.5934L78.8501 26.8401L80.264 24.581L81.6207 24.5764Z" fill="#283C55"/>
<path d="M83.9208 27.8158C84.1058 28.4915 84.61 28.8209 85.4333 28.8178C85.9575 28.8162 86.363 28.6322 86.6282 28.2766L87.7429 28.9152C87.2218 29.679 86.4432 30.0687 85.4164 30.0733C84.5283 30.0764 83.8222 29.812 83.2856 29.2786C82.7491 28.7451 82.4793 28.0694 82.4746 27.2545C82.4716 26.4504 82.7352 25.7732 83.2579 25.2351C83.779 24.6862 84.4635 24.4156 85.2869 24.4109C86.067 24.4078 86.7207 24.6738 87.2264 25.2181C87.7414 25.7624 88.0019 26.4272 88.005 27.2313C88.0066 27.4138 87.985 27.5962 87.9541 27.8003L83.9208 27.8158ZM86.622 26.7319C86.4586 26.0036 85.9221 25.651 85.2915 25.6541C84.553 25.6572 84.0534 26.0561 83.8946 26.7427L86.622 26.7319Z" fill="#283C55"/>
<path d="M92.3269 24.53L93.7053 24.5238L93.7284 29.8863L92.3485 29.8924L92.3408 27.8545L90.2116 27.8637L90.2208 29.9017L88.8409 29.9079L88.8193 24.5455L90.1977 24.5393L90.2069 26.5664L92.3346 26.5571L92.3269 24.53Z" fill="#283C55"/>
<path d="M95.9995 27.7648C96.1845 28.4405 96.6886 28.7699 97.5119 28.7668C98.0362 28.7652 98.4416 28.5797 98.7068 28.2256L99.8216 28.8642C99.3004 29.628 98.5218 30.0177 97.495 30.0223C96.6069 30.0254 95.9008 29.761 95.3642 29.2275C94.8277 28.6941 94.5579 28.0199 94.5532 27.205C94.5502 26.401 94.8138 25.7237 95.3365 25.1856C95.8576 24.6367 96.5406 24.3661 97.3639 24.3614C98.1441 24.3584 98.7978 24.6243 99.3035 25.1686C99.8185 25.7129 100.079 26.3778 100.082 27.1818C100.084 27.3643 100.062 27.5468 100.031 27.7509L95.9995 27.7648ZM98.7007 26.6808C98.5372 25.9526 98.0007 25.6 97.3701 25.6031C96.6316 25.6062 96.132 26.0051 95.9732 26.6917L98.7007 26.6808Z" fill="#283C55"/>
<path d="M104.405 24.479L105.785 24.4728L105.807 29.8352L104.428 29.8414L104.419 27.8034L102.291 27.8127L102.3 29.8507L100.921 29.8569L100.897 24.4944L102.277 24.4882L102.285 26.5154L104.414 26.5061L104.405 24.479Z" fill="#283C55"/>
<path d="M110.477 24.4527L111.857 24.4465L111.88 29.8089L110.5 29.8151L110.497 29.2152C110.167 29.7208 109.633 29.9697 108.907 29.9728C108.32 29.9759 107.837 29.7842 107.45 29.3883C107.074 28.9925 106.88 28.4575 106.877 27.7601L106.863 24.4681L108.243 24.4619L108.257 27.5823C108.26 28.3013 108.677 28.6848 109.32 28.6817C110.037 28.6786 110.495 28.2379 110.491 27.3473L110.477 24.4527Z" fill="#283C55"/>
<path d="M116.541 24.4279L117.921 24.4217L117.944 29.7842L116.564 29.7904L116.561 29.1904C116.231 29.6961 115.697 29.945 114.971 29.9481C114.382 29.9512 113.901 29.7595 113.514 29.3652C113.138 28.9693 112.944 28.4343 112.941 27.7369L112.927 24.4449L114.307 24.4388L114.321 27.5591C114.324 28.2781 114.743 28.6616 115.384 28.6601C116.101 28.657 116.559 28.2147 116.555 27.3256L116.541 24.4279ZM116.962 22.5384L116.966 23.7398L113.866 23.7538L113.861 22.5523L116.962 22.5384Z" fill="#283C55"/>
<path d="M95.1067 5.1939L96.4866 5.18771L96.5097 10.5502L95.1283 10.5564L95.1252 9.9564C94.7953 10.462 94.2618 10.711 93.5356 10.7141C92.9482 10.7172 92.4656 10.5254 92.0786 10.1296C91.7024 9.73374 91.5082 9.19873 91.5051 8.50136L91.4912 5.20936L92.8711 5.20318L92.885 8.32354C92.8881 9.04256 93.3059 9.42603 93.9488 9.42294C94.6658 9.41985 95.1237 8.97762 95.119 8.08851L95.1067 5.1939Z" fill="#283C55"/>
<path d="M68.9054 24.6305L70.2853 24.6243L70.3085 29.9868L68.9286 29.9929L68.9255 29.393C68.5955 29.8986 68.0621 30.1476 67.3359 30.1507C66.7469 30.1538 66.2659 29.962 65.8789 29.5662C65.5027 29.1703 65.3085 28.6353 65.3054 27.9379L65.2915 24.6459L66.6714 24.6398L66.6853 27.7601C66.6884 28.4776 67.1062 28.8626 67.7491 28.8595C68.466 28.8564 68.9239 28.4142 68.9193 27.5251L68.9054 24.6305Z" fill="#283C55"/>
<path d="M78.8179 8.03131C78.8179 7.17313 79.1817 6.43401 79.7907 5.97168C79.4161 5.70417 79.1709 5.22174 79.1709 4.78105C79.1709 3.86876 79.7692 3.09717 81.2662 3.09717H83.4371V4.38366H81.3726C80.8268 4.38366 80.5817 4.59859 80.5817 4.94186C80.5817 5.27431 80.8176 5.51089 81.4158 5.51089H81.7365C83.1796 5.51089 84.3344 6.66904 84.3344 8.03131C84.3344 9.57603 83.1364 10.7976 81.5761 10.7976C79.9943 10.7976 78.8179 9.57448 78.8179 8.03131ZM82.8604 8.06223C82.8604 7.39734 82.3578 6.79738 81.5669 6.79738C80.7112 6.79738 80.2841 7.41898 80.2841 8.06223C80.2841 8.92041 80.7975 9.42449 81.5669 9.42449C82.3254 9.42449 82.8604 8.92041 82.8604 8.06223Z" fill="#283C55"/>
</g>
<defs>
<clipPath id="clip0_368_270">
<rect width="127.111" height="32" fill="white"/>
</clipPath>
</defs>
</svg>
