<svg width="16" height="16" viewBox="0 0 16 16" fill="none" xmlns="http://www.w3.org/2000/svg">
<path d="M7.05993 1.22034C7.05873 1.22153 7.05754 1.22272 7.05754 1.22272L2.27417 5.98038C1.17519 7.07345 0.570692 8.55129 0.57129 10.1433C0.571289 11.736 1.17579 13.2138 2.27417 14.3063C3.37315 15.3993 4.85898 16.0006 6.45962 16C8.06025 16.0006 9.54608 15.3993 10.6451 14.3063L15.4284 9.54862L14.2326 8.3592L9.44922 13.1169C8.67013 13.8918 7.60822 14.3188 6.45962 14.3182C5.31101 14.3188 4.2491 13.8918 3.47001 13.1169C2.69152 12.3426 2.26221 11.2864 2.26221 10.1433C2.26161 9.00089 2.69092 7.94469 3.47001 7.16979L8.25338 2.41213L7.65546 1.81743L8.25398 2.41154L8.25577 2.40976C8.72813 1.93994 9.36372 1.68124 10.0465 1.68243C10.7294 1.68243 11.3668 1.94172 11.8421 2.41332C12.3145 2.88195 12.5752 3.51472 12.5752 4.19388C12.5746 4.87482 12.3133 5.50937 11.8409 5.98038L7.05754 10.738C6.90447 10.8903 6.69161 10.9747 6.46081 10.9747C6.22762 10.9747 6.01476 10.8903 5.86169 10.738C5.71102 10.5882 5.62432 10.3711 5.62432 10.1439C5.62372 9.91258 5.70863 9.70086 5.86169 9.54862L10.6451 4.79096L9.44922 3.60155L4.66585 8.3592C4.1935 8.82902 3.9328 9.46298 3.9334 10.1451C3.9334 10.8255 4.19409 11.4582 4.66585 11.9274C5.13761 12.3967 5.7744 12.6566 6.46081 12.6566C7.14483 12.6566 7.78162 12.3967 8.25338 11.9274L13.0373 7.1692C13.8284 6.38121 14.2655 5.3256 14.2661 4.19507C14.2667 3.06453 13.829 2.00833 13.0361 1.22212C12.2427 0.434138 11.1808 2.37206e-06 10.0471 2.4372e-06C8.91229 -0.0011869 7.85158 0.432949 7.05993 1.22034Z" fill="currentColor"/>
</svg>
