<svg width="12" height="14" viewBox="0 0 12 14" fill="none" xmlns="http://www.w3.org/2000/svg">
<path d="M1.33333 13.6667C0.966667 13.6667 0.652667 13.5363 0.391333 13.2754C0.130444 13.0141 0 12.7001 0 12.3334V3.00007C0 2.6334 0.130444 2.31963 0.391333 2.05874C0.652667 1.7974 0.966667 1.66674 1.33333 1.66674H2V0.333405H3.33333V1.66674H8.66667V0.333405H10V1.66674H10.6667C11.0333 1.66674 11.3473 1.7974 11.6087 2.05874C11.8696 2.31963 12 2.6334 12 3.00007V12.3334C12 12.7001 11.8696 13.0141 11.6087 13.2754C11.3473 13.5363 11.0333 13.6667 10.6667 13.6667H1.33333ZM1.33333 12.3334H10.6667V5.66674H1.33333V12.3334ZM1.33333 4.3334H10.6667V3.00007H1.33333V4.3334ZM1.33333 4.3334V3.00007V4.3334ZM6 8.3334C5.81111 8.3334 5.65289 8.2694 5.52533 8.1414C5.39733 8.01385 5.33333 7.85563 5.33333 7.66674C5.33333 7.47785 5.39733 7.3194 5.52533 7.1914C5.65289 7.06385 5.81111 7.00007 6 7.00007C6.18889 7.00007 6.34733 7.06385 6.47533 7.1914C6.60289 7.3194 6.66667 7.47785 6.66667 7.66674C6.66667 7.85563 6.60289 8.01385 6.47533 8.1414C6.34733 8.2694 6.18889 8.3334 6 8.3334ZM3.33333 8.3334C3.14444 8.3334 2.986 8.2694 2.858 8.1414C2.73044 8.01385 2.66667 7.85563 2.66667 7.66674C2.66667 7.47785 2.73044 7.3194 2.858 7.1914C2.986 7.06385 3.14444 7.00007 3.33333 7.00007C3.52222 7.00007 3.68067 7.06385 3.80867 7.1914C3.93622 7.3194 4 7.47785 4 7.66674C4 7.85563 3.93622 8.01385 3.80867 8.1414C3.68067 8.2694 3.52222 8.3334 3.33333 8.3334ZM8.66667 8.3334C8.47778 8.3334 8.31956 8.2694 8.192 8.1414C8.064 8.01385 8 7.85563 8 7.66674C8 7.47785 8.064 7.3194 8.192 7.1914C8.31956 7.06385 8.47778 7.00007 8.66667 7.00007C8.85556 7.00007 9.01378 7.06385 9.14133 7.1914C9.26933 7.3194 9.33333 7.47785 9.33333 7.66674C9.33333 7.85563 9.26933 8.01385 9.14133 8.1414C9.01378 8.2694 8.85556 8.3334 8.66667 8.3334ZM6 11.0001C5.81111 11.0001 5.65289 10.9361 5.52533 10.8081C5.39733 10.6805 5.33333 10.5223 5.33333 10.3334C5.33333 10.1445 5.39733 9.98629 5.52533 9.85874C5.65289 9.73074 5.81111 9.66674 6 9.66674C6.18889 9.66674 6.34733 9.73074 6.47533 9.85874C6.60289 9.98629 6.66667 10.1445 6.66667 10.3334C6.66667 10.5223 6.60289 10.6805 6.47533 10.8081C6.34733 10.9361 6.18889 11.0001 6 11.0001ZM3.33333 11.0001C3.14444 11.0001 2.986 10.9361 2.858 10.8081C2.73044 10.6805 2.66667 10.5223 2.66667 10.3334C2.66667 10.1445 2.73044 9.98629 2.858 9.85874C2.986 9.73074 3.14444 9.66674 3.33333 9.66674C3.52222 9.66674 3.68067 9.73074 3.80867 9.85874C3.93622 9.98629 4 10.1445 4 10.3334C4 10.5223 3.93622 10.6805 3.80867 10.8081C3.68067 10.9361 3.52222 11.0001 3.33333 11.0001ZM8.66667 11.0001C8.47778 11.0001 8.31956 10.9361 8.192 10.8081C8.064 10.6805 8 10.5223 8 10.3334C8 10.1445 8.064 9.98629 8.192 9.85874C8.31956 9.73074 8.47778 9.66674 8.66667 9.66674C8.85556 9.66674 9.01378 9.73074 9.14133 9.85874C9.26933 9.98629 9.33333 10.1445 9.33333 10.3334C9.33333 10.5223 9.26933 10.6805 9.14133 10.8081C9.01378 10.9361 8.85556 11.0001 8.66667 11.0001Z" fill="#738296"/>
</svg>
