<svg width="12" height="12" viewBox="0 0 12 12" fill="none" xmlns="http://www.w3.org/2000/svg">
<path d="M5.97116 9.50008C6.17533 9.50008 6.34799 9.4295 6.48916 9.28833C6.62994 9.14755 6.70033 8.97508 6.70033 8.77091C6.70033 8.56675 6.62994 8.39428 6.48916 8.2535C6.34799 8.11233 6.17533 8.04175 5.97116 8.04175C5.76699 8.04175 5.59433 8.11233 5.45316 8.2535C5.31238 8.39428 5.24199 8.56675 5.24199 8.77091C5.24199 8.97508 5.31238 9.14755 5.45316 9.28833C5.59433 9.4295 5.76699 9.50008 5.97116 9.50008ZM5.44616 7.25425H6.52533C6.52533 6.93341 6.56188 6.68064 6.63499 6.49591C6.70771 6.31119 6.91421 6.05841 7.25449 5.73758C7.50727 5.4848 7.70658 5.24408 7.85241 5.01541C7.99824 4.78714 8.07116 4.51258 8.07116 4.19175C8.07116 3.6473 7.87185 3.22925 7.47324 2.93758C7.07463 2.64591 6.6031 2.50008 6.05866 2.50008C5.50449 2.50008 5.05494 2.64591 4.70999 2.93758C4.36466 3.22925 4.12394 3.57925 3.98783 3.98758L4.95033 4.36675C4.99894 4.19175 5.10841 4.00216 5.27874 3.798C5.44869 3.59383 5.70866 3.49175 6.05866 3.49175C6.36977 3.49175 6.6031 3.57672 6.75866 3.74666C6.91421 3.917 6.99199 4.10425 6.99199 4.30841C6.99199 4.50286 6.93366 4.68505 6.81699 4.855C6.70033 5.02533 6.55449 5.18341 6.37949 5.32925C5.95171 5.70841 5.68921 5.99522 5.59199 6.18966C5.49477 6.38411 5.44616 6.73897 5.44616 7.25425ZM6.00033 11.8334C5.19338 11.8334 4.43505 11.6802 3.72533 11.3737C3.0156 11.0677 2.39824 10.6522 1.87324 10.1272C1.34824 9.60217 0.932714 8.9848 0.626659 8.27508C0.320214 7.56536 0.166992 6.80703 0.166992 6.00008C0.166992 5.19314 0.320214 4.4348 0.626659 3.72508C0.932714 3.01536 1.34824 2.398 1.87324 1.873C2.39824 1.348 3.0156 0.932276 3.72533 0.625831C4.43505 0.319776 5.19338 0.166748 6.00033 0.166748C6.80727 0.166748 7.5656 0.319776 8.27532 0.625831C8.98505 0.932276 9.60241 1.348 10.1274 1.873C10.6524 2.398 11.0679 3.01536 11.374 3.72508C11.6804 4.4348 11.8337 5.19314 11.8337 6.00008C11.8337 6.80703 11.6804 7.56536 11.374 8.27508C11.0679 8.9848 10.6524 9.60217 10.1274 10.1272C9.60241 10.6522 8.98505 11.0677 8.27532 11.3737C7.5656 11.6802 6.80727 11.8334 6.00033 11.8334Z" fill="currentColor"/>
</svg>
