<svg width="15" height="14" viewBox="0 0 15 14" fill="none" xmlns="http://www.w3.org/2000/svg">
<path d="M12.7167 10.8833L11.5083 9.67499C11.0662 10.4093 10.4418 11.0169 9.6957 11.4389C8.94961 11.8608 8.10715 12.0828 7.25 12.0833C5.92392 12.0833 4.65215 11.5565 3.71446 10.6189C2.77678 9.68118 2.25 8.40941 2.25 7.08333C2.25 5.75724 2.77678 4.48547 3.71447 3.54779C4.65215 2.61011 5.92392 2.08333 7.25 2.08333C9.05833 2.08333 10.6333 3.04999 11.5167 4.48333L12.7167 3.28333C12.106 2.39824 11.2894 1.67486 10.337 1.17547C9.38473 0.676089 8.3253 0.415675 7.25 0.416659C5.48189 0.416659 3.7862 1.11904 2.53595 2.36928C1.28571 3.61952 0.583333 5.31521 0.583333 7.08333C0.583333 8.85144 1.28571 10.5471 2.53595 11.7974C3.7862 13.0476 5.48189 13.75 7.25 13.75C9.51667 13.75 11.5167 12.6167 12.7167 10.8833ZM14.75 7.91666L14.75 6.24999L6.41667 6.24999L6.41667 7.91666" fill="currentColor"/>
</svg>
