<svg width="80" height="80" viewBox="0 0 80 80" fill="none" xmlns="http://www.w3.org/2000/svg">
<g clip-path="url(#clip0_74_4596)">
<circle cx="40.0003" cy="40" r="39.7053" fill="#F6DC04"/>
<ellipse cx="40.0372" cy="38.1952" rx="12.1915" ry="12.1915" fill="white"/>
<path fill-rule="evenodd" clip-rule="evenodd" d="M36.654 10.5838C35.9871 10.7289 35.5138 11.1865 35.3612 11.8337C35.2821 12.1695 35.2917 12.4985 35.4182 13.7772C35.5435 15.0432 35.5814 15.2434 35.7684 15.6259C36.0673 16.2374 36.5619 16.5289 37.3009 16.5289C38.358 16.5289 39.0358 15.9753 39.1627 15.0083C39.1986 14.7341 39.1893 14.5494 39.0872 13.5104C39.0231 12.8585 38.9455 12.1918 38.9147 12.0289C38.7704 11.2661 38.2915 10.7196 37.6346 10.5682C37.4118 10.5168 36.9263 10.5246 36.654 10.5838ZM42.9916 10.6863C42.9511 10.81 42.1113 16.3471 42.1302 16.366C42.1621 16.3979 45.0413 16.8423 45.0647 16.819C45.109 16.7746 45.2267 15.9193 45.1914 15.8975C45.1713 15.8851 44.7346 15.8113 44.2209 15.7336C43.7072 15.6559 43.2814 15.5878 43.2746 15.5823C43.2608 15.571 43.4878 14.1119 43.5063 14.0934C43.5128 14.0869 43.8976 14.141 44.3613 14.2137C44.825 14.2864 45.2098 14.3405 45.2165 14.3339C45.2444 14.3059 45.3658 13.4178 45.3416 13.4178C45.2827 13.4178 43.666 13.1611 43.6548 13.15C43.6375 13.1326 43.8514 11.7853 43.8753 11.7614C43.8864 11.7504 44.3041 11.8048 44.8038 11.8824C45.3034 11.9599 45.7215 12.014 45.7329 12.0026C45.7675 11.968 45.893 11.1045 45.8668 11.0814C45.8439 11.0611 43.1561 10.639 43.0542 10.6397C43.0281 10.6398 42.9999 10.6608 42.9916 10.6863ZM36.7487 11.6122C36.5483 11.7135 36.4342 11.8761 36.3799 12.138C36.3199 12.427 36.56 14.8129 36.6753 15.0736C36.8249 15.4117 37.0175 15.5424 37.3624 15.54C37.8537 15.5364 38.1202 15.2428 38.1202 14.7054C38.1202 14.3942 37.9033 12.2775 37.8555 12.1215C37.781 11.8788 37.6408 11.6796 37.4905 11.6029C37.2871 11.4991 36.9645 11.5032 36.7487 11.6122ZM29.5091 12.3668C28.735 12.6634 28.0985 12.9091 28.0945 12.9129C28.0906 12.9167 28.2369 13.3777 28.4197 13.9373C28.8674 15.3079 29.2124 16.4493 29.2837 16.7958C29.3669 17.2002 29.3611 17.5533 29.2688 17.7048C29.2284 17.771 29.1826 17.8257 29.1671 17.8264C29.1515 17.827 29.1076 17.8511 29.0696 17.8799C29.0032 17.9302 29.0066 17.948 29.1581 18.3417C29.2448 18.5668 29.3357 18.7511 29.3602 18.7511C29.4636 18.7511 29.872 18.5115 30.0293 18.3586C30.2738 18.1211 30.3537 17.9185 30.3714 17.4918C30.3892 17.064 30.3151 16.6724 30.0287 15.681C29.8571 15.0872 29.4239 13.6878 29.3603 13.5219C29.344 13.4794 29.456 13.4221 29.8453 13.2739C30.1237 13.1679 30.3548 13.0861 30.3588 13.0921C30.3628 13.0981 30.7467 14.103 31.2119 15.3252C31.677 16.5474 32.0704 17.5618 32.0859 17.5795C32.1068 17.6033 32.9851 17.3031 33.0358 17.2549C33.0544 17.2371 30.9766 11.8453 30.9478 11.8369C30.9306 11.8318 30.2832 12.0703 29.5091 12.3668ZM52.6376 16.4798C51.8336 17.7575 51.1384 18.8644 51.0928 18.9395L51.0098 19.0763L51.4043 19.3231C51.6213 19.4588 51.8153 19.5732 51.8355 19.5772C51.8557 19.5812 52.0827 19.2511 52.34 18.8437L52.8078 18.103L53.1122 17.9439C53.3866 17.8005 53.4165 17.7921 53.4165 17.8582C53.4165 17.9494 53.2403 20.0398 53.2128 20.2753L53.1927 20.4477L53.6769 20.7518C53.9432 20.9191 54.1672 21.0498 54.1747 21.0423C54.1822 21.0347 54.232 20.2287 54.2854 19.251C54.3387 18.2733 54.3942 17.4364 54.4087 17.3914C54.4287 17.3288 54.7007 17.1775 55.5536 16.7543C56.1688 16.449 56.7563 16.163 56.8591 16.1187C56.962 16.0745 57.0461 16.0264 57.0461 16.0118C57.0461 15.9973 56.8284 15.8485 56.5623 15.6811L56.0784 15.3769L55.3308 15.7744C54.6363 16.1436 54.0066 16.4951 53.7869 16.6361L53.6943 16.6955L53.7531 16.603C54.3271 15.7002 54.9349 14.7167 54.9346 14.6913C54.9343 14.66 54.2673 14.2212 54.154 14.1778C54.1141 14.1624 53.7093 14.7769 52.6376 16.4798ZM23.0091 15.7925C22.286 16.3017 21.6739 16.7383 21.649 16.7628C21.6134 16.7977 21.6598 16.8869 21.8645 17.1774C22.008 17.3809 22.1395 17.5525 22.1568 17.5587C22.1741 17.565 22.3887 17.4275 22.6337 17.2532C22.8787 17.0789 23.0926 16.937 23.109 16.9378C23.1253 16.9386 23.7554 17.8212 24.5091 18.899C25.2628 19.9768 25.8927 20.8595 25.9089 20.8604C25.957 20.8633 26.7313 20.3063 26.7313 20.2688C26.7313 20.2403 26.1007 19.3349 24.1484 16.5601L23.973 16.3107L24.4536 15.9733L24.9341 15.6359L24.7453 15.3694C24.6414 15.2229 24.5208 15.049 24.4772 14.983C24.4337 14.9171 24.3813 14.864 24.361 14.8649C24.3406 14.8659 23.7323 15.2833 23.0091 15.7925ZM17.898 20.3486C17.3989 20.9187 16.9693 21.415 16.9434 21.4516C16.9008 21.5115 17.1093 21.7051 19.0658 23.4216C20.2591 24.4686 21.2481 25.3252 21.2635 25.3252C21.2974 25.3252 23.2313 23.1288 23.2313 23.0903C23.2313 23.0582 22.5279 22.4407 22.5134 22.4601C22.5079 22.4674 22.2154 22.803 21.8633 23.2059C21.304 23.8458 21.2154 23.9326 21.1624 23.8916C21.1081 23.8497 20.2527 23.1057 20.1242 22.9886C20.0811 22.9494 20.1659 22.8354 20.6393 22.2959C20.9509 21.9408 21.1991 21.6357 21.1909 21.6179C21.1644 21.5614 20.5724 21.0474 20.5337 21.0474C20.5132 21.0474 20.2507 21.3266 19.9504 21.6678C19.65 22.009 19.3919 22.2932 19.3767 22.2994C19.3511 22.3098 18.3357 21.4335 18.3142 21.3825C18.3088 21.3698 18.5804 21.0456 18.9177 20.6621C19.255 20.2787 19.5261 19.9534 19.5201 19.9394C19.5069 19.9086 18.8341 19.3055 18.8172 19.3094C18.8107 19.3108 18.3971 19.7785 17.898 20.3486ZM58.2339 20.7843C56.8078 21.591 55.6405 22.2635 55.6399 22.2786C55.6392 22.2937 55.8012 22.4727 55.9998 22.6764L56.3609 23.0467L56.8161 22.7694L57.2714 22.4922L57.5968 22.8346C57.7758 23.023 57.9856 23.2481 58.063 23.335L58.2039 23.493L57.8992 23.9389L57.5945 24.3849L57.9429 24.7439C58.1345 24.9414 58.3027 25.1113 58.3167 25.1215C58.344 25.1413 61.5646 20.1755 61.5646 20.1136C61.5646 20.0933 61.3986 19.9059 61.1958 19.6971L60.8268 19.3174L58.2339 20.7843ZM60.0832 20.7101C59.8785 20.8754 59.1829 21.335 58.6477 21.6585C58.3781 21.8215 58.1575 21.9693 58.1574 21.9871C58.1571 22.0395 58.7579 22.6394 58.7904 22.6193C58.8068 22.6091 58.9771 22.3722 59.1689 22.0927C59.4465 21.6881 59.8896 21.0914 60.2406 20.6493C60.3053 20.5679 60.2171 20.602 60.0832 20.7101ZM63.5188 24.8634C63.4223 24.8797 63.2557 24.9218 63.1484 24.957C62.8759 25.0464 61.597 25.6887 61.2996 25.8854C60.3996 26.4807 60.1136 27.4247 60.5406 28.3904L60.6306 28.5938L60.3573 28.7373C60.2069 28.8162 60.0838 28.8935 60.0836 28.9091C60.0832 28.934 60.4822 29.751 60.5095 29.7812C60.5152 29.7876 60.6508 29.7271 60.8108 29.6468L61.1017 29.5009L61.2313 29.7245C61.3026 29.8475 61.4546 30.042 61.5692 30.1567C62.08 30.6686 62.7736 30.8249 63.5233 30.5971C63.7792 30.5194 65.1646 29.8236 65.4535 29.6278C65.8755 29.3418 66.2379 28.8352 66.3427 28.3851C66.4123 28.0867 66.3721 27.6039 66.2514 27.2881C66.1969 27.1455 66.1442 27.0034 66.1341 26.9723C66.121 26.9316 66.1895 26.88 66.3773 26.7892C66.5211 26.7196 66.6387 26.655 66.6387 26.6455C66.6387 26.6277 66.1965 25.7783 66.177 25.7586C66.171 25.7526 66.0586 25.8067 65.9271 25.879C65.7957 25.9513 65.6728 26.0099 65.6542 26.0093C65.6355 26.0087 65.5623 25.9071 65.4915 25.7835C65.3341 25.5087 64.9729 25.1636 64.7062 25.0331C64.3492 24.8584 63.916 24.7965 63.5188 24.8634ZM14.7775 25.5321C14.5479 25.5862 14.2691 25.7468 14.0866 25.9301C13.9558 26.0615 13.8063 26.3117 13.4635 26.9731C13.2154 27.4517 13.0242 27.8541 13.0386 27.8673C13.0529 27.8805 13.998 28.3698 15.1387 28.9546C16.2795 29.5394 17.4324 30.1324 17.7009 30.2725L18.1889 30.5271L18.6173 29.6941C19.1628 28.6334 19.2064 28.5073 19.1866 28.0474C19.1671 27.597 19.0562 27.3474 18.734 27.0286C18.2206 26.5204 17.5444 26.3632 16.9813 26.621C16.8682 26.6727 16.7728 26.7107 16.7693 26.7053C16.7658 26.7 16.7341 26.6175 16.6988 26.5223C16.4491 25.848 15.5038 25.3609 14.7775 25.5321ZM63.6943 25.8616C63.4748 25.9077 63.2826 25.9928 62.5382 26.3735C61.5955 26.8557 61.3317 27.1123 61.332 27.547C61.3321 27.7237 61.4665 28.1215 61.5261 28.1215C61.5503 28.1215 64.5336 26.5983 64.6889 26.5066C64.7529 26.4688 64.7536 26.4585 64.6995 26.3538C64.4968 25.9619 64.1128 25.7739 63.6943 25.8616ZM14.9574 26.567C14.7902 26.6176 14.6445 26.7812 14.4847 27.0975C14.4039 27.2575 14.343 27.3923 14.3494 27.3971C14.3557 27.402 14.6393 27.5489 14.9796 27.7237L15.5982 28.0416L15.7573 27.7575C15.897 27.5079 15.9163 27.4454 15.9164 27.2436C15.9165 27.0266 15.9086 27.0058 15.7723 26.8663C15.551 26.6396 15.1744 26.5013 14.9574 26.567ZM64.5072 27.7476C64.1212 27.9468 63.3923 28.3221 62.8875 28.5814L61.9695 29.0531L62.0508 29.1891C62.1712 29.3908 62.3061 29.5265 62.4698 29.6107C62.5917 29.6734 62.6649 29.6829 62.9133 29.6685C63.2063 29.6516 63.2238 29.6448 64.0311 29.2349C64.8947 28.7965 65.1741 28.601 65.3057 28.3431C65.4174 28.1241 65.4348 27.9291 65.3623 27.7074C65.2428 27.3422 65.2979 27.3396 64.5072 27.7476ZM17.1387 27.5412C16.9716 27.6173 16.7686 27.8636 16.6049 28.1893L16.4583 28.4808L17.1249 28.8235C17.4916 29.012 17.7969 29.1603 17.8035 29.1531C17.81 29.1459 17.8955 28.9817 17.9934 28.7881C18.1468 28.4849 18.1717 28.4048 18.1736 28.2084C18.1755 28.0085 18.1621 27.9635 18.0644 27.8427C17.847 27.5738 17.3924 27.4258 17.1387 27.5412ZM12.3047 32.0472C11.5124 32.2448 11.0101 33.0202 11.0523 33.9805C11.065 34.2697 11.0858 34.3639 11.1816 34.5659C11.3341 34.8874 11.5847 35.1284 11.9536 35.3083C12.2027 35.4298 12.465 35.5013 13.6017 35.7573C14.866 36.0421 14.9812 36.0618 15.3795 36.0622C15.9161 36.0627 16.1314 35.9878 16.4547 35.6885C16.8551 35.3179 17.0704 34.719 17.0357 34.0729C16.9978 33.368 16.5785 32.869 15.7987 32.6006C15.6184 32.5386 15.6038 32.5383 15.5864 32.5963C15.5668 32.6617 15.3795 33.4927 15.3795 33.5143C15.3795 33.5212 15.4627 33.5626 15.5644 33.6064C16.0186 33.8018 16.1699 34.2536 15.9352 34.7137C15.8351 34.91 15.6377 35.0104 15.3517 35.0104C15.0313 35.0104 12.6765 34.4816 12.4176 34.3516C12.1615 34.223 12.0461 34.0604 12.0464 33.829C12.047 33.3084 12.3117 33.032 12.8074 33.0342L13.0687 33.0353L13.172 32.5572C13.2289 32.2942 13.2641 32.0678 13.2503 32.054C13.2123 32.0157 12.4527 32.0103 12.3047 32.0472ZM65.472 33.3214C62.7601 33.8628 62.6576 33.8863 62.6684 33.9628C62.7039 34.216 63.2225 36.7917 63.2418 36.811C63.2546 36.8238 63.4659 36.7956 63.7112 36.7484C64.0412 36.6848 64.1572 36.6482 64.1572 36.6077C64.1572 36.5776 64.0813 36.1601 63.9886 35.6798C63.8958 35.1996 63.8166 34.7828 63.8126 34.7536C63.8071 34.7133 63.9709 34.6668 64.4906 34.5609C64.8674 34.4841 65.2012 34.4205 65.2324 34.4195C65.2769 34.4181 65.3235 34.594 65.4504 35.2418C65.5391 35.6951 65.622 36.0772 65.6345 36.091C65.6572 36.116 66.4764 35.9628 66.5123 35.9268C66.5228 35.9164 66.458 35.5307 66.3685 35.0696C66.207 34.2381 66.2063 34.231 66.2833 34.2128C66.8283 34.0839 67.6098 33.9521 67.6219 33.9871C67.6297 34.0101 67.7116 34.419 67.8039 34.8959C67.896 35.3727 67.9801 35.7715 67.9906 35.782C68.0065 35.798 68.9006 35.6482 68.9244 35.6255C68.9508 35.6004 68.3557 32.7519 68.3248 32.7553C68.3039 32.7576 67.0202 33.0123 65.472 33.3214ZM37.0461 33.673C36.48 33.7986 36.0437 34.0123 35.5704 34.3958L35.2869 34.6254L34.603 34.2642C34.2268 34.0655 33.9127 33.9092 33.905 33.9169C33.8974 33.9246 34.0654 34.2734 34.2785 34.6921L34.6658 35.4533L34.5504 35.474C34.487 35.4853 34.1285 35.5435 33.754 35.6033C33.3794 35.6631 33.0669 35.718 33.0595 35.7253C33.0522 35.7327 33.342 35.8985 33.7036 36.0938L34.361 36.4488L34.352 36.7018C34.3379 37.097 34.4114 37.9546 34.4941 38.3607C34.9911 40.8011 36.7682 42.8094 39.1202 43.5886C39.3545 43.6661 39.5508 43.7321 39.5564 43.7352C39.5621 43.7383 39.4376 44.3181 39.2798 45.0237L38.9929 46.3067H33.4269H27.861V46.4465C27.861 47.2783 28.3116 49.0011 28.8259 50.1352C29.8343 52.3589 31.5746 54.3548 33.5531 55.5567L33.8732 55.7511H36.677H39.4808L39.9209 55.4707C40.5928 55.0424 41.1619 54.5955 41.6991 54.0742L42.1867 53.601L42.4614 53.6932C43.3393 53.9879 44.3701 53.9796 45.3411 53.6703C46.0365 53.4487 46.6011 53.1129 47.1338 52.604C47.9596 51.815 48.4213 50.8587 48.4213 49.9374C48.4213 49.2424 48.1975 48.7191 47.6758 48.1939C47.3203 47.8363 47.0705 47.6871 46.6197 47.5634C46.3084 47.478 45.8039 47.4516 45.4849 47.504L45.3125 47.5324L45.3481 47.3739C45.3916 47.1803 45.4889 46.5047 45.4899 46.39L45.4906 46.3067H43.638H41.7855L41.8077 46.218C41.8199 46.1693 41.9426 45.6244 42.0803 45.0071L42.3306 43.8848L42.7165 43.804C44.4831 43.4337 46.0845 42.3637 47.0642 40.8993C47.3045 40.5399 47.621 39.9797 47.5967 39.9567C47.5892 39.9497 47.4582 39.9784 47.3054 40.0204C46.9219 40.1261 46.037 40.1337 45.6572 40.0347C45.3064 39.9432 44.7005 39.6464 44.4212 39.4291C44.2719 39.313 43.5326 38.4909 42.2961 37.0659C41.2533 35.8641 40.2996 34.7747 40.1768 34.645C39.7708 34.2164 39.2604 33.91 38.6543 33.7309C38.1999 33.5967 37.5032 33.5716 37.0461 33.673ZM36.5017 35.4163C36.3514 35.5079 36.2684 35.6675 36.2684 35.8647C36.2684 35.9946 36.2911 36.0418 36.4121 36.1629C36.5385 36.2892 36.5771 36.3067 36.7305 36.3067C37.0331 36.3067 37.2315 36.121 37.2312 35.838C37.2308 35.457 36.8222 35.2208 36.5017 35.4163ZM12.6202 42.283C12.0645 42.5414 12.1227 43.3194 12.7109 43.4957C13.214 43.6464 13.6755 43.1146 13.4615 42.6309C13.3192 42.309 12.9197 42.1439 12.6202 42.283ZM66.4618 42.3111C65.9629 42.558 66.0326 43.3393 66.5672 43.4926C66.7548 43.5464 66.8569 43.5374 67.0342 43.4516C67.5173 43.2178 67.523 42.55 67.0441 42.3056C66.8589 42.2112 66.6598 42.213 66.4618 42.3111ZM40.508 43.951C40.5008 43.9735 40.3797 44.5132 40.239 45.1504L39.9832 46.309L40.3942 46.2986L40.8053 46.2881L41.0632 45.1324C41.205 44.4967 41.3134 43.9696 41.304 43.9611C41.2608 43.9218 40.5204 43.9124 40.508 43.951ZM45.5752 48.7678C45.1359 48.9051 44.8801 49.1581 44.6935 49.64C44.367 50.4834 43.7254 51.6486 43.211 52.3322C42.9841 52.6338 42.9738 52.6147 43.398 52.6755C44.4315 52.8235 45.5316 52.476 46.2402 51.7777C47.2234 50.809 47.461 49.7953 46.8582 49.1414C46.6653 48.932 46.5058 48.8324 46.2582 48.7665C46.0201 48.7031 45.7809 48.7036 45.5752 48.7678ZM63.7578 50.0466L63.6423 50.3082L64.1094 50.8167C64.3663 51.0964 64.728 51.4813 64.9132 51.672C65.0983 51.8628 65.2332 52.0126 65.2128 52.0049C65.1924 51.9973 64.9591 51.8808 64.6943 51.7461C64.2267 51.5083 63.3695 51.1215 63.3099 51.1215C63.2647 51.1215 63.0787 51.5763 63.1109 51.6084C63.1529 51.6504 66.0133 52.9074 66.0296 52.8911C66.0583 52.8624 66.2313 52.4512 66.2313 52.4117C66.2313 52.3618 65.7493 51.8286 65.102 51.1627C64.837 50.8901 64.6369 50.6736 64.6572 50.6817C64.6776 50.6897 64.8693 50.7862 65.0832 50.896C65.297 51.0059 65.7266 51.2086 66.0378 51.3464L66.6036 51.5971L66.7145 51.3526C66.7754 51.2181 66.8125 51.0967 66.7968 51.0829C66.7764 51.0647 64.3665 49.9942 63.9134 49.802C63.8914 49.7926 63.8214 49.9027 63.7578 50.0466ZM62.8293 49.9624C62.7594 50.0987 62.7595 50.1005 62.8368 50.2051C62.9087 50.3023 62.9104 50.3182 62.8589 50.4104C62.8201 50.4799 62.7677 50.5138 62.687 50.5217C62.5899 50.5313 62.5611 50.5578 62.5102 50.685C62.4384 50.8645 62.4664 50.8978 62.6899 50.8987C63.1807 50.9006 63.4345 50.1606 63.0381 49.883C62.9228 49.8022 62.9088 49.8076 62.8293 49.9624ZM14.2197 50.7133C13.4495 51.0762 12.8117 51.3806 12.8025 51.3899C12.7932 51.3991 12.8368 51.5161 12.8994 51.6499L13.0132 51.8931L13.3537 51.7347C13.541 51.6476 13.9526 51.445 14.2684 51.2845C14.5841 51.124 14.8591 50.9865 14.8795 50.9789C14.8999 50.9713 14.6776 51.2061 14.3855 51.5007L13.8544 52.0363L13.9834 52.2924L14.1124 52.5486L14.2923 52.5366C14.3912 52.5301 14.7209 52.5009 15.025 52.4717C15.3292 52.4426 15.5834 52.4241 15.5899 52.4307C15.5965 52.4373 15.3893 52.5313 15.1296 52.6397C14.775 52.7876 13.7729 53.2386 13.6842 53.2901C13.6669 53.3002 13.8937 53.7881 13.9157 53.7881C13.9378 53.7881 16.7945 52.4596 16.8136 52.4404C16.8197 52.4343 16.7722 52.3102 16.7079 52.1647L16.591 51.9001L16.4575 51.9169C16.384 51.9261 16.0739 51.9429 15.7684 51.9542C15.4628 51.9656 15.0712 51.9847 14.898 51.9969L14.5832 52.0188L14.8262 51.7646C15.0601 51.5199 15.7319 50.7824 15.8745 50.6138C15.9424 50.5335 15.9417 50.5282 15.8301 50.2898C15.7677 50.1565 15.695 50.0488 15.6685 50.0505C15.6419 50.0522 14.99 50.3505 14.2197 50.7133ZM62.0819 53.4063C61.8568 53.7857 61.6863 54.1099 61.7032 54.1267C61.7932 54.2167 64.4326 55.7494 64.4552 55.7248C64.5055 55.6699 65.2683 54.3737 65.2683 54.3431C65.2683 54.3264 65.2059 54.2749 65.1294 54.2286C65.0531 54.1823 64.955 54.122 64.9115 54.0944C64.8356 54.0465 64.821 54.0639 64.5611 54.5089C64.4119 54.7643 64.2761 54.9733 64.2593 54.9733C64.2121 54.9733 63.5646 54.5885 63.5646 54.5605C63.5646 54.5469 63.6646 54.3674 63.7869 54.1615C63.9091 53.9557 64.0091 53.7722 64.0091 53.7539C64.0091 53.7201 63.6612 53.4919 63.6097 53.4919C63.5944 53.4919 63.4731 53.6741 63.3402 53.8968L63.0984 54.3018L62.7667 54.1052C62.5843 53.9971 62.4378 53.8939 62.4413 53.8759C62.4447 53.8578 62.5592 53.6544 62.6957 53.4237C62.8329 53.1917 62.9294 52.9907 62.9116 52.9737C62.8939 52.9569 62.7921 52.8922 62.6854 52.8298L62.4913 52.7164L62.0819 53.4063ZM16.1202 54.4562C15.3971 54.9231 14.8093 55.3213 14.8141 55.3411C14.8216 55.3725 15.024 55.6953 15.542 56.5021L15.6794 56.7162L15.8196 56.6318C15.8968 56.5854 15.9992 56.521 16.0472 56.4887L16.1344 56.4301L15.8496 55.9868C15.6929 55.7429 15.5647 55.5313 15.5647 55.5165C15.5647 55.5017 15.7185 55.3908 15.9065 55.27L16.2484 55.0505L16.5034 55.4471C16.6437 55.6652 16.7633 55.8491 16.7692 55.8557C16.7818 55.8697 17.1943 55.5996 17.1943 55.5773C17.1943 55.5689 17.086 55.3934 16.9536 55.1872C16.8212 54.981 16.7128 54.7996 16.7128 54.7841C16.7128 54.7541 17.3442 54.332 17.3606 54.351C17.3658 54.3572 17.4972 54.5587 17.6525 54.7989L17.9349 55.2354L18.1559 55.0854L18.3768 54.9353L17.9542 54.2784C17.7218 53.9171 17.5099 53.6183 17.4833 53.6144C17.4568 53.6105 16.8434 53.9893 16.1202 54.4562ZM60.3823 55.9354C60.1159 56.2813 59.8989 56.5771 59.9001 56.5929C59.9013 56.6086 60.2009 56.8683 60.5659 57.17C61.2736 57.7551 61.5023 57.9913 61.6545 58.2943C61.7648 58.5139 61.7697 58.5582 61.6953 58.6643C61.6432 58.7387 61.6591 58.7559 62.0669 59.0669C62.545 59.4314 62.4701 59.428 62.7124 59.0956L62.8257 58.9401L62.6211 58.7856C62.5086 58.7006 62.417 58.6206 62.4176 58.6078C62.4183 58.591 63.2198 57.533 63.2829 57.4655C63.2869 57.4612 63.3867 57.5333 63.5047 57.6259C63.6226 57.7184 63.7224 57.7887 63.7265 57.7819C63.7306 57.7752 63.7928 57.6946 63.8649 57.603C64.0525 57.3642 64.0609 57.3444 63.9966 57.2949C63.9653 57.2709 63.7794 57.128 63.5834 56.9776L63.2272 56.7042L63.121 56.8059L63.0148 56.9076L61.9758 56.1072C61.4043 55.6669 60.921 55.3067 60.9017 55.3067C60.8823 55.3067 60.6486 55.5896 60.3823 55.9354ZM60.8038 56.2717C60.7081 56.396 60.6443 56.5104 60.662 56.5258C60.6797 56.5411 60.8943 56.7206 61.1387 56.9244C61.6438 57.3456 61.9761 57.6894 62.0854 57.9037L62.1604 58.0506L62.4222 57.7119C62.6387 57.4316 62.6753 57.3652 62.6336 57.3273C62.6059 57.3021 62.3248 57.0843 62.0091 56.8433C61.6933 56.6023 61.3321 56.3243 61.2064 56.2254L60.9778 56.0456L60.8038 56.2717ZM18.8294 56.2369C18.601 56.2797 18.4383 56.3866 17.783 56.9248C16.998 57.5693 16.8883 57.7109 16.8838 58.0844C16.8796 58.4289 17.1512 58.85 17.4959 59.0336C17.698 59.1412 18.055 59.1259 18.3147 58.9984C18.4318 58.9409 18.5276 58.8799 18.5276 58.8629C18.5276 58.8459 18.4517 58.7388 18.359 58.625C18.1905 58.4181 18.1902 58.418 18.083 58.4734C17.8372 58.6006 17.5338 58.4733 17.4692 58.2158C17.4217 58.0264 17.5323 57.892 18.1556 57.3822C18.9163 56.7597 19.0379 56.7076 19.258 56.909C19.4364 57.0722 19.4407 57.3261 19.2681 57.5104C19.1998 57.5834 19.2014 57.5879 19.3671 57.7882C19.4598 57.9002 19.5485 57.9967 19.5642 58.0027C19.6091 58.0198 19.8174 57.7383 19.9029 57.5449C20.0425 57.2293 19.9613 56.8806 19.6716 56.5514C19.4419 56.2905 19.1415 56.1783 18.8294 56.2369ZM58.2596 58.3946L57.7162 58.964L58.7052 59.9451C59.2492 60.4847 59.7662 60.9898 59.8542 61.0675L60.0141 61.2087L60.5946 60.6282L61.1752 60.0477L60.9789 59.8531L60.7826 59.6585L60.4146 60.0382C60.2122 60.247 60.0344 60.4178 60.0194 60.4178C60.0045 60.4178 59.8626 60.289 59.7043 60.1315L59.4163 59.8453L59.7579 59.5023L60.0994 59.1593L59.9354 58.9923C59.8452 58.9004 59.7513 58.8252 59.7267 58.8252C59.702 58.8252 59.543 58.9735 59.3733 59.1547L59.0646 59.4842L58.7683 59.2113L58.472 58.9384L58.8332 58.5756C59.0317 58.376 59.1943 58.197 59.1943 58.1778C59.1943 58.129 58.8914 57.8252 58.8428 57.8252C58.821 57.8252 58.5585 58.0814 58.2596 58.3946ZM20.7302 58.3079L20.5466 58.4943L20.7871 58.7131L21.0276 58.9319L20.4534 59.5174C20.1376 59.8394 19.7129 60.2739 19.5095 60.4827L19.1399 60.8625L19.3464 61.0691L19.5529 61.2756L20.4928 60.3095L21.4327 59.3434L21.6657 59.5743L21.8986 59.8052L22.0928 59.6107L22.2869 59.4163L21.6202 58.7708C21.2536 58.4158 20.9446 58.1244 20.9336 58.1234C20.9227 58.1223 20.8311 58.2054 20.7302 58.3079ZM56.3699 60.1374C56.2135 60.1932 56.1625 60.2278 55.9596 60.4158C55.6499 60.7029 55.5753 61.071 55.7514 61.4443C55.8709 61.6979 56.8302 62.8746 57.0288 63.0112C57.3751 63.2495 57.7391 63.2353 58.0924 62.9698C58.424 62.7207 58.5956 62.3793 58.5442 62.071C58.5171 61.9084 58.3704 61.5876 58.3045 61.5469C58.2829 61.5335 58.1744 61.6002 58.0635 61.695C57.8627 61.8664 57.862 61.8679 57.9169 61.974C58.0135 62.1609 57.9883 62.2992 57.8283 62.4592C57.6447 62.6428 57.5101 62.6504 57.3247 62.4876C57.0788 62.2717 56.2714 61.2311 56.2464 61.0979C56.2183 60.9481 56.2911 60.8191 56.4648 60.7109C56.6069 60.6223 56.7506 60.6396 56.9128 60.7646L57.0252 60.8514L57.2379 60.6811L57.4507 60.5109L57.3317 60.3857C57.0825 60.1234 56.6918 60.0225 56.3699 60.1374ZM22.9047 60.5111C22.6727 60.6119 22.5633 60.7207 22.0977 61.3132C21.5424 62.02 21.4431 62.1958 21.424 62.506C21.412 62.6998 21.4254 62.7619 21.5165 62.9352C21.722 63.3262 22.2086 63.607 22.5753 63.546C22.7432 63.5182 22.8908 63.452 23.0601 63.3287C23.2031 63.2246 24.0661 62.1152 24.1859 61.8815C24.3125 61.6345 24.3209 61.2831 24.2055 61.0643C24.1059 60.8755 23.8297 60.6188 23.6273 60.5269C23.4402 60.442 23.0819 60.4341 22.9047 60.5111ZM23.1017 61.078C22.9615 61.1677 22.8747 61.2649 22.4832 61.7696C22.0779 62.2922 22.0094 62.4074 22.0093 62.5669C22.0089 62.9032 22.4165 63.0932 22.6739 62.8767C22.816 62.7571 23.557 61.8164 23.6469 61.6414C23.7454 61.4498 23.7309 61.3251 23.5924 61.1752C23.4409 61.011 23.2617 60.9755 23.1017 61.078ZM53.7989 62.0246C53.5747 62.0977 53.4019 62.2142 53.2328 62.4063C52.9995 62.6715 52.9468 62.9937 53.0796 63.3434C53.1559 63.544 53.7573 64.5215 53.9636 64.7802C54.3208 65.2279 54.8814 65.2834 55.3765 64.92C55.7406 64.6527 55.8648 64.1839 55.6808 63.7711C55.5854 63.557 54.9766 62.5791 54.8031 62.3612C54.5666 62.0643 54.128 61.9172 53.7989 62.0246ZM53.7985 62.6381C53.6567 62.7246 53.6017 62.8182 53.6017 62.9727C53.6017 63.1193 53.6476 63.2089 54.0528 63.8514C54.5246 64.5996 54.684 64.7149 54.9753 64.5185C55.1356 64.4104 55.2016 64.2835 55.1787 64.1266C55.1566 63.9747 54.4933 62.898 54.3029 62.7048C54.1432 62.5428 53.9884 62.5224 53.7985 62.6381ZM26.7848 64.5369C26.3989 65.3142 26.0832 65.9693 26.0832 65.9926C26.0832 66.0499 27.1 66.5195 27.2884 66.5493C27.772 66.6257 28.281 66.1508 28.2763 65.6275C28.2753 65.5167 28.2479 65.3745 28.2153 65.3115L28.1561 65.197L28.2787 65.1458C28.5444 65.0348 28.8244 64.5859 28.8237 64.2722C28.8233 64.0911 28.7444 63.8934 28.6155 63.7508C28.4969 63.6195 28.0158 63.3425 27.6274 63.1819L27.4865 63.1236L26.7848 64.5369ZM50.8633 63.6101C50.6099 63.7073 50.339 63.9711 50.2766 64.1813C50.2168 64.3827 50.2195 64.5127 50.2883 64.7444C50.3615 64.9907 50.982 66.2826 51.1039 66.4425C51.2601 66.6472 51.5097 66.7696 51.7684 66.7681C52.1915 66.7657 52.6712 66.4533 52.7861 66.1055C52.8376 65.9493 52.8211 65.5671 52.756 65.4077L52.7141 65.3051L52.4588 65.4336L52.2036 65.5622L52.2399 65.7029C52.2873 65.8869 52.2329 66.025 52.0748 66.1213C51.8977 66.2293 51.7116 66.2187 51.5927 66.0937C51.4709 65.9657 50.8578 64.6695 50.8336 64.4885C50.8069 64.2896 50.9661 64.1214 51.2065 64.0943C51.3757 64.0752 51.3888 64.0807 51.5185 64.2235L51.6539 64.3726L51.8871 64.2576C52.0153 64.1944 52.1202 64.1276 52.1202 64.1092C52.1202 64.0909 52.0628 63.9976 51.9925 63.9019C51.7322 63.5473 51.3106 63.4383 50.8633 63.6101ZM27.5836 64.1948C27.4917 64.3777 27.4165 64.537 27.4165 64.5487C27.4165 64.5605 27.5069 64.6114 27.6174 64.662C27.7523 64.7238 27.8496 64.7461 27.9138 64.73C28.1211 64.6779 28.2886 64.3323 28.2004 64.1385C28.1679 64.0673 27.8485 63.8622 27.77 63.8622C27.7593 63.8622 27.6754 64.0119 27.5836 64.1948ZM30.5198 64.6081C30.3093 64.6672 30.0735 64.8979 29.956 65.1597C29.7571 65.603 29.3795 66.7633 29.3795 66.9312C29.3795 67.4788 29.8154 67.8622 30.4379 67.8622C30.7073 67.8622 30.8904 67.7887 31.0516 67.6156C31.1619 67.4973 31.3051 67.2705 31.3053 67.2137C31.3053 67.1932 31.1961 67.1372 31.0625 67.0893L30.8195 67.0022L30.6892 67.1544C30.5772 67.2853 30.5383 67.3067 30.4118 67.3067C30.139 67.3067 29.9721 67.1672 29.9721 66.9392C29.9721 66.8087 30.4272 65.494 30.5329 65.3192C30.6209 65.1736 30.7758 65.1142 30.9453 65.161C31.1415 65.2152 31.225 65.3305 31.2383 65.5658L31.2498 65.7694L31.4877 65.854C31.7594 65.9507 31.7685 65.9454 31.8063 65.6703C31.8411 65.4178 31.7975 65.2197 31.6631 65.019C31.4517 64.7033 30.8945 64.503 30.5198 64.6081ZM26.999 65.3997C26.9027 65.5935 26.8239 65.7599 26.8239 65.7695C26.8239 65.7791 26.9067 65.8289 27.0079 65.8801C27.2063 65.9806 27.4415 66.0016 27.5337 65.927C27.7221 65.7746 27.7749 65.4613 27.6371 65.3134C27.5769 65.2488 27.2349 65.0474 27.1854 65.0474C27.1791 65.0474 27.0952 65.206 26.999 65.3997ZM46.4737 65.3004L46.2532 65.3622L46.095 66.2511C46.0081 66.74 45.9258 67.2446 45.9122 67.3725C45.8866 67.614 45.8239 67.7279 45.8239 67.533C45.8239 67.3284 45.4591 65.6332 45.403 65.5771C45.3951 65.5692 45.2783 65.5905 45.1433 65.6244C44.9832 65.6646 44.898 65.7046 44.898 65.7393C44.898 65.8202 45.6074 68.7659 45.634 68.7955C45.6468 68.8097 45.7739 68.793 45.9165 68.7584L46.1758 68.6956L46.3312 67.8252C46.4167 67.3465 46.4982 66.834 46.5122 66.6863C46.5263 66.5386 46.548 66.4178 46.5605 66.4179C46.573 66.4179 46.6111 66.5898 46.6453 66.7999C46.6972 67.1188 46.999 68.4507 47.0268 68.4834C47.0315 68.4889 47.1546 68.4649 47.3002 68.4299C47.5047 68.3808 47.5614 68.3532 47.549 68.3087C47.5402 68.277 47.3699 67.5719 47.1706 66.7419C46.8853 65.5536 46.7961 65.2332 46.7513 65.2356C46.7199 65.2372 46.595 65.2664 46.4737 65.3004ZM32.9612 65.3323C32.9513 65.3488 32.9231 65.4602 32.8985 65.58C32.848 65.8256 32.8568 65.8401 33.0808 65.8802C33.1534 65.8932 33.2724 65.9193 33.3453 65.9383L33.4778 65.9727L33.1945 67.186C33.0388 67.8533 32.9004 68.4422 32.8871 68.4946C32.8636 68.5869 32.8715 68.5919 33.1421 68.6557C33.2957 68.6919 33.4267 68.7157 33.4331 68.7086C33.4395 68.7014 33.5746 68.1289 33.7332 67.4363C33.8919 66.7437 34.0353 66.1614 34.0519 66.1424C34.0704 66.1211 34.1917 66.1335 34.3649 66.1744C34.58 66.225 34.6542 66.2304 34.675 66.1968C34.7112 66.1383 34.7976 65.7495 34.7787 65.7306C34.766 65.7179 33.4333 65.3983 33.096 65.327C33.0317 65.3134 32.9711 65.3158 32.9612 65.3323ZM35.8607 65.9258C35.8605 65.9417 35.7779 66.6625 35.6771 67.5274C35.5763 68.3923 35.4983 69.1046 35.5039 69.1101C35.5094 69.1156 35.6374 69.1246 35.7882 69.1301L36.0624 69.14L36.1252 68.6215C36.1598 68.3363 36.1894 68.1016 36.1911 68.0999C36.1929 68.0982 36.2901 68.1106 36.4072 68.1275C37.0771 68.2238 37.5318 67.9096 37.6439 67.273C37.7001 66.9544 37.6585 66.6878 37.5162 66.453C37.3469 66.1737 37.1323 66.0622 36.6358 65.9955C35.9642 65.9053 35.861 65.896 35.8607 65.9258ZM43.2697 65.9426C43.1381 65.9614 43.024 65.9832 43.0162 65.9909C43.0084 65.9987 43.0388 66.3311 43.0838 66.7296C43.1287 67.128 43.1564 67.4777 43.1452 67.5068C43.1341 67.5358 43.036 67.5794 42.9273 67.6038C42.7618 67.6408 42.7075 67.6388 42.5941 67.5914C42.4009 67.5107 42.3513 67.3827 42.2869 66.8003C42.2558 66.5186 42.2221 66.237 42.2119 66.1746L42.1935 66.0609L41.9254 66.0951C41.7779 66.1139 41.6525 66.1337 41.6467 66.139C41.6409 66.1443 41.6699 66.4384 41.7112 66.7925C41.7777 67.3641 41.7997 67.4631 41.9069 67.6756C42.0024 67.8649 42.0652 67.9381 42.2075 68.026C42.4276 68.1619 42.7535 68.1956 43.0387 68.112L43.2249 68.0574L43.2451 68.1728C43.2561 68.2362 43.2857 68.4937 43.3108 68.7449L43.3564 69.2017L43.6179 69.1764C43.7618 69.1625 43.89 69.1402 43.9028 69.127C43.9157 69.1138 43.8456 68.403 43.7472 67.5474C43.6487 66.6919 43.5674 65.971 43.5664 65.9456C43.5654 65.9201 43.5521 65.9013 43.5369 65.9038C43.5216 65.9063 43.4014 65.9238 43.2697 65.9426ZM38.898 67.7874V69.4178H39.7313H40.5647V69.14V68.8622H40.0079H39.4511L39.4616 68.4456L39.4721 68.0289H39.9443H40.4166L40.4165 67.7587C40.4165 67.5642 40.4036 67.4903 40.3702 67.4946C40.3448 67.4979 40.1281 67.4987 39.8887 67.4962L39.4535 67.4919V67.103V66.7141H39.9922H40.5309L40.52 66.4456L40.5091 66.177L39.7035 66.167L38.898 66.1571V67.7874ZM36.3608 66.5812C36.3514 66.6237 36.3217 66.8613 36.2949 67.1091L36.2461 67.5596L36.3545 67.5813C36.5408 67.6186 36.7494 67.6051 36.8582 67.5488C37.1312 67.4077 37.1602 66.7433 36.8996 66.6038C36.8601 66.5827 36.7266 66.5516 36.6029 66.5347C36.3923 66.5059 36.3768 66.5089 36.3608 66.5812Z" fill="black"/>
</g>
<defs>
<clipPath id="clip0_74_4596">
<rect width="80" height="80" fill="white"/>
</clipPath>
</defs>
</svg>
