<svg width="167" height="67" viewBox="0 0 167 67" fill="none" xmlns="http://www.w3.org/2000/svg">
<path fill-rule="evenodd" clip-rule="evenodd" d="M78.6958 0.434994C77.9459 0.664489 76.3376 1.73963 75.1225 2.82381C71.9146 5.68496 70.9182 9.41975 72.1099 14.1147C72.8112 16.879 76.2083 20.2654 79.0759 21.059C81.6941 21.7832 85.3012 21.4895 87.4763 20.3752C89.2777 19.4521 92.1684 16.1199 91.75 15.4482C91.293 14.7141 87.9133 13.2127 87.7584 13.6747C87.1894 15.3681 84.7796 16.8325 82.5321 16.8506C80.1995 16.8699 78.6589 16.1345 77.6747 14.5332C76.1345 12.0269 76.0798 12.0467 84.544 12.0467C88.8008 12.0467 92.3754 11.9554 92.4878 11.8434C92.6006 11.7319 92.5602 10.3743 92.3988 8.82685C92.0508 5.48862 90.6807 3.14889 88.0721 1.43564C86.6678 0.513789 85.7157 0.263627 83.1934 0.153831C81.4697 0.0784806 79.4461 0.205069 78.6958 0.434994ZM118.9 0.886665C114.592 2.82123 112.627 5.91273 112.627 10.755C112.627 14.556 113.598 16.7942 116.151 18.882C121.389 23.1662 130.04 22.0247 133.418 16.6043C134.497 14.8712 134.758 13.9377 134.891 11.3285C135.031 8.58444 134.899 7.8473 133.909 5.83997C132.003 1.97472 128.456 -0.0175372 123.51 0.000116302C121.783 0.00614431 120.17 0.316588 118.9 0.886665ZM26.6594 0.969334C26.5427 1.27073 26.5001 5.87226 26.5644 11.1954L26.6815 20.8734L29.3496 21.0004L32.0181 21.1274L36.0288 14.8648C38.2351 11.4202 40.1589 8.60166 40.3043 8.60166C40.4496 8.60123 40.5686 11.3625 40.5686 14.7373V20.8734L43.0639 21.0026L45.5592 21.1317V10.7765V0.421216H42.8399H40.1207L36.2914 6.44794C34.1853 9.76248 32.2845 12.5832 32.0671 12.7166C31.8367 12.8579 31.6722 10.3463 31.6722 6.68992V0.421216H29.2719C27.7291 0.421216 26.7957 0.617126 26.6594 0.969334ZM49.9084 4.81305C49.9193 9.85893 50.6097 11.9756 52.8568 13.8516C55.2688 15.865 60.5398 15.7797 61.8886 13.7052C62.1264 13.3397 62.3477 14.5651 62.484 16.9982L62.701 20.8734L65.1963 21.0026L67.6916 21.1317V10.755V0.378159L65.1963 0.507331L62.701 0.636502L62.484 4.65805C62.2818 8.40575 62.1841 8.75064 61.0493 9.71727C59.5842 10.9659 57.7411 11.0503 56.3481 9.93342C55.4298 9.19714 55.3009 8.67184 55.1065 4.87419L54.8895 0.636502L52.3942 0.507331L49.8989 0.378159L49.9084 4.81305ZM96.7676 10.755V21.0887H99.3714H101.975V13.1231V5.15751H106.315H110.655V2.78936V0.421216H103.711H96.7676V10.755ZM2.16228 4.08108V6.44923H6.068H9.97372V10.5397V14.6301H6.068H2.16228V17.2135V19.797H12.5992H23.0362L22.906 17.3212L22.7758 14.8454L18.7616 14.7214L14.7474 14.5978V10.4975V6.39756L18.7616 6.48669L22.7758 6.57582L22.906 4.14437L23.0362 1.71293H12.5992H2.16228V4.08108ZM80.0229 4.47764C78.7353 5.03394 76.805 7.02619 76.805 7.79907C76.805 8.00402 79.2461 8.17152 82.2296 8.17152C85.2131 8.17152 87.6542 8.06517 87.6542 7.9347C87.6542 6.95429 86.0372 4.98313 84.8187 4.47764C83.0042 3.72543 81.7644 3.72543 80.0229 4.47764ZM121.272 5.57215C119.093 6.6615 118.027 8.39541 118.047 10.8213C118.076 14.3575 120.195 16.3446 123.941 16.3494C126.535 16.3528 128.211 15.2962 129.151 13.0645C129.975 11.1067 129.898 9.49467 128.9 7.87184C127.183 5.07699 124.114 4.15169 121.272 5.57215ZM109.287 26.4553C105.463 28.473 103.702 31.6265 103.721 36.4239C103.736 40.4343 105.963 44.0787 109.531 45.931C111.534 46.97 115.403 47.1435 117.939 46.3077C120.154 45.5779 123.674 42.4429 123.674 41.199C123.674 40.8821 122.869 40.1742 121.885 39.6257L120.097 38.6285L119.079 39.9189C116.899 42.6827 112.357 42.9777 110.126 40.5002C109.462 39.7626 108.919 38.7749 108.919 38.3047C108.919 37.4844 109.229 37.4504 116.73 37.4504H124.542V35.1594C124.542 32.0226 122.791 28.6362 120.274 26.904C118.608 25.7587 117.985 25.5972 114.849 25.4999C111.785 25.4052 111.032 25.5343 109.287 26.4553ZM150.219 26.5152C146.572 28.3189 144.559 31.6519 144.525 35.9434C144.499 39.3742 145.262 41.3346 147.482 43.5383C150.66 46.6927 155.097 47.6683 159.641 46.2121C164.563 44.6354 167.343 40.4705 166.966 35.2382C166.513 28.9608 162.317 25.3944 155.384 25.3944C153.132 25.3944 151.981 25.6441 150.219 26.5152ZM3.77881 33.0384C3.39736 37.0056 2.95427 40.5902 2.79414 41.0039C2.63444 41.4177 2.0616 41.7562 1.52174 41.7562C0.72454 41.7562 0.489328 42.0593 0.271041 43.3708C-0.247118 46.4817 -0.240175 46.4925 2.32068 46.4925C4.93317 46.4925 6.68598 45.4767 7.4337 43.5297C7.74226 42.7267 9.09277 32.3339 9.10492 30.6689C9.10535 30.6095 10.5704 30.5613 12.3606 30.5613H15.6153V38.5484V46.5355L18.1106 46.4063L20.606 46.2772L20.7223 36.0511L20.8386 25.825H12.6557H4.47273L3.77881 33.0384ZM25.5966 36.1587V46.4925H28.3154H31.0342L33.3985 42.7249C34.6987 40.653 36.5943 37.7079 37.611 36.1811L39.4593 33.4048L39.58 39.841L39.7006 46.2772L42.1959 46.4063L44.6913 46.5355V36.1802V25.825H41.91H39.1282L35.0749 32.1079L31.0212 38.3912L30.901 32.1079L30.7812 25.825H28.1887H25.5966V36.1587ZM49.4649 36.1647V46.5049L62.8095 46.3908L76.154 46.2772L76.2703 36.0511L76.3866 25.825H73.775H71.1634V33.5753V41.3256H68.3426H65.5218V33.5753V25.825H62.918H60.3141V33.5753V41.3256H57.4934H54.6726V33.5753V25.825H52.0687H49.4649V36.1647ZM81.1447 36.1587V46.4925H83.7485H86.3523V42.1867V37.881H90.475H94.5977V42.2083V46.5355L97.093 46.4063L99.5884 46.2772L99.7047 36.0511L99.821 25.825H97.2093H94.5977V29.4848V33.1447H90.475H86.3523V29.4848V25.825H83.7485H81.1447V36.1587ZM128.548 36.0511L128.664 46.2772L131.377 46.4055L134.089 46.5334V38.5475V30.5613H138.429H142.768V28.1931V25.825H135.6H128.432L128.548 36.0511ZM112.138 29.6868C111.172 30.0747 108.919 32.5178 108.919 33.1779C108.919 33.3987 111.232 33.5753 114.126 33.5753C118.864 33.5753 119.334 33.5051 119.334 32.7955C119.334 30.3968 115.016 28.5316 112.138 29.6868ZM153.401 30.7348C150.679 31.9266 149.352 34.9101 150.178 37.9835C151.357 42.3697 158.588 43.1211 160.842 39.0909C161.748 37.4707 161.569 34.1191 160.496 32.6241C158.892 30.3882 155.969 29.6097 153.401 30.7348ZM109.475 55.2546C109.567 55.5267 110.195 55.7498 110.872 55.7498C111.548 55.7498 112.176 55.5267 112.268 55.2546C112.372 54.9424 111.856 54.7594 110.872 54.7594C109.887 54.7594 109.371 54.9424 109.475 55.2546ZM1.72831 60.3022C1.72831 63.3472 1.82031 63.761 2.46866 63.637C2.87616 63.559 3.32749 63.0122 3.472 62.4215L3.73498 61.3472L4.0418 62.5313C4.46666 64.1709 5.84494 64.1089 6.43687 62.4236C7.00494 60.8073 7.4771 60.7478 7.29266 62.316C7.18113 63.2594 7.32955 63.5001 8.02086 63.5001C8.81155 63.5001 8.8888 63.2129 8.8888 60.2708C8.8888 57.3037 8.81373 57.0307 7.96445 56.9106C7.20544 56.8034 6.89862 57.1693 6.25114 58.9558C5.8176 60.1528 5.35152 61.1319 5.21612 61.1319C5.08072 61.1319 4.62288 60.1631 4.19933 58.979C3.62996 57.3885 3.20641 56.8262 2.57846 56.8262C1.80425 56.8262 1.72831 57.1375 1.72831 60.3022ZM11.1259 57.6137C9.78712 59.0815 10.5001 60.1175 11.8962 58.7323C12.6088 58.0253 13.8634 58.0335 14.0109 58.7461C14.0578 58.973 13.4628 59.2878 12.6886 59.4445C10.7479 59.8385 9.90602 60.6406 10.0601 61.9483C10.2241 63.3369 12.1822 64.1674 13.4463 63.3842C14.0044 63.0385 14.3633 63.017 14.5508 63.3175C14.7036 63.5625 15.141 63.7033 15.5229 63.6305C16.4689 63.4497 16.2901 58.6751 15.2964 57.5797C14.3976 56.5889 12.0429 56.6079 11.1259 57.6137ZM17.5322 57.4096C17.4081 57.7308 17.3655 59.2322 17.4376 60.7465C17.5526 63.1698 17.6723 63.5001 18.4361 63.5001C19.1882 63.5001 19.3214 63.1698 19.4343 61.0243C19.5618 58.5989 19.5905 58.5485 20.8447 58.5485C21.8354 58.5485 22.1249 58.3539 22.1249 57.6873C22.1249 56.9403 21.8354 56.8262 19.9416 56.8262C18.5043 56.8262 17.6806 57.0255 17.5322 57.4096ZM23.7522 57.2912C22.9655 57.7459 22.6856 59.4096 23.396 59.4096C23.6173 59.4096 24.1059 59.1048 24.4813 58.7323C25.1939 58.0253 26.4485 58.0335 26.596 58.7461C26.6429 58.973 26.0479 59.2878 25.2737 59.4445C24.4995 59.6017 23.5721 59.9724 23.2124 60.2686C22.4282 60.9145 22.357 62.4818 23.0796 63.1987C23.7292 63.8432 25.6986 63.8725 26.3287 63.2473C26.6685 62.9102 26.882 62.9102 27.0921 63.2473C27.2526 63.5048 27.6649 63.7153 28.0091 63.7153C29.0623 63.7153 28.8635 58.7758 27.7665 57.6873C26.8343 56.7625 24.9834 56.5799 23.7522 57.2912ZM30.6958 57.2912C29.909 57.7459 29.6291 59.4096 30.3395 59.4096C30.5608 59.4096 31.0542 59.1 31.4352 58.722C31.8167 58.3435 32.4286 58.1485 32.7957 58.2884C33.576 58.5855 33.2097 59.4096 32.2975 59.4096C31.3814 59.4096 31.5346 60.0749 32.6143 60.7862C33.1642 61.1487 33.4246 61.6185 33.2397 61.9151C32.781 62.651 32.2003 62.5425 31.3545 61.5625C30.3651 60.4159 29.9363 60.4766 29.9363 61.7627C29.9363 63.6365 33.0435 64.443 34.4257 62.9278C35.232 62.0443 35.3657 60.8882 34.7082 60.4852C34.4687 60.3384 34.3932 59.7429 34.5399 59.1625C34.69 58.5687 34.5724 57.8264 34.2712 57.4664C33.6589 56.7345 31.8158 56.6441 30.6958 57.2912ZM36.4458 60.2393C36.4458 63.3705 36.5279 63.7153 37.2726 63.7153C37.7964 63.7153 38.5519 62.9657 39.3339 61.6701L40.5686 59.6249L40.7018 61.6968C40.8098 63.373 40.9756 63.742 41.5697 63.6288C42.1821 63.5117 42.3044 62.9506 42.3044 60.2647C42.3044 57.3334 42.2263 57.0415 41.4404 57.0415C40.9123 57.0415 40.1537 57.6929 39.4875 58.7181L38.3987 60.3948L38.1817 58.7224C38.0333 57.5797 37.7243 57.0044 37.2053 56.9063C36.5326 56.7793 36.4458 57.1612 36.4458 60.2393ZM43.8233 60.2708C43.8233 63.4282 43.8958 63.7153 44.6913 63.7153C45.3969 63.7153 45.5592 63.4282 45.5592 62.1799C45.5592 60.7586 45.6482 60.6544 46.7526 60.7806C47.752 60.8947 47.9686 61.1483 48.084 62.3418C48.1869 63.4071 48.4065 63.7321 48.952 63.6279C50.036 63.4204 50.0378 57.1211 48.9537 56.914C48.4351 56.815 48.1856 57.1228 48.0858 57.9849C47.9751 58.942 47.6969 59.2227 46.7526 59.3304C45.6803 59.4531 45.5592 59.333 45.5592 58.1463C45.5592 57.1134 45.3704 56.8262 44.6913 56.8262C43.8958 56.8262 43.8233 57.1134 43.8233 60.2708ZM55.3521 57.7773C54.4946 58.9924 55.2788 60.0546 56.1602 58.8714C56.7677 58.055 58.1443 57.8406 58.1443 58.5618C58.1443 58.8064 57.8514 59.1177 57.4934 59.2537C57.1353 59.3902 56.8424 59.7717 56.8424 60.1015C56.8424 60.4314 57.1353 60.7013 57.4934 60.7013C58.2658 60.7013 58.3643 61.8075 57.6318 62.2566C57.3328 62.44 56.8593 62.1816 56.4939 61.6361C55.7297 60.4938 54.6726 60.4124 54.6726 61.4957C54.6726 63.2598 57.1583 64.2691 59.0409 63.2697C59.9253 62.7999 60.1944 60.945 59.4449 60.4852C59.1554 60.3078 59.1607 59.9388 59.4601 59.3834C60.6596 57.1603 56.8415 55.6675 55.3521 57.7773ZM62.3134 57.5074C62.1685 57.8819 62.05 58.837 62.05 59.6292C62.05 60.4219 61.7571 61.361 61.3991 61.7162C61.041 62.0714 60.7481 62.9571 60.7481 63.6848C60.7481 64.573 60.9616 65.0071 61.3991 65.0071C61.7571 65.0071 62.05 64.7164 62.05 64.3612C62.05 63.6611 62.356 63.5844 64.636 63.7123C65.4615 63.7588 66.3598 64.0985 66.6314 64.4675C66.9035 64.8365 67.351 65.0006 67.6257 64.8322C68.238 64.4568 68.2953 61.993 67.6916 61.993C67.4503 61.993 67.2577 60.8447 67.2577 59.4096V56.8262H64.9173C63.1836 56.8262 62.5087 57.0027 62.3134 57.5074ZM70.1631 57.3045C68.1542 58.4641 68.2449 62.0176 70.3102 63.0768C72.546 64.2243 74.3348 63.7429 75.4323 61.6985C76.213 60.2436 76.036 59.038 74.8717 57.8832C73.729 56.7491 71.5817 56.4856 70.1631 57.3045ZM77.2025 57.2378C77.1205 57.767 77.1053 60.666 77.1699 63.4238C77.2298 65.9694 77.3405 66.3427 77.9984 66.2191C78.4988 66.1253 78.8043 65.6 78.8941 64.6794C79.0139 63.448 79.1519 63.3123 80.0558 63.5375C80.6204 63.6783 81.4888 63.665 81.9861 63.5082C83.2394 63.1138 84.3009 60.9257 83.9685 59.423C83.535 57.4643 82.5364 56.88 79.7343 56.9454C78.3616 56.9773 77.2225 57.1086 77.2025 57.2378ZM85.9183 57.6873C84.5913 59.004 84.7349 61.6843 86.1939 62.8228C88.6471 64.7375 91.9939 63.1702 91.9939 60.1063C91.9939 57.2895 87.9441 55.6774 85.9183 57.6873ZM93.2958 60.3306V63.8355L95.5481 63.5707C98.3563 63.2409 99.2872 62.4516 98.6098 60.976C98.3446 60.3991 98.2426 59.491 98.3832 58.958C98.7317 57.6352 97.5109 56.8262 95.1658 56.8262H93.2958V60.3306ZM100.684 57.6766C99.4152 58.9356 99.1514 60.5196 99.9976 61.8006C101.421 63.9569 104.06 64.2307 105.892 62.4129C107.002 61.311 106.984 59.392 105.849 57.9607C104.707 56.5196 102 56.3706 100.684 57.6766ZM108.051 59.9521C108.051 61.7063 108.16 63.2495 108.293 63.3816C108.871 63.9547 110.091 63.1048 111.092 61.432L112.173 59.6249L112.307 61.4548C112.415 62.9343 112.602 63.2848 113.283 63.2848C114.044 63.2848 114.126 62.9657 114.126 60.0253C114.126 56.8938 114.088 56.7715 113.152 56.9037C112.586 56.9838 111.722 57.7437 111.091 58.7181L110.004 60.3948L109.787 58.7224C109.638 57.5797 109.329 57.0044 108.81 56.9063C108.142 56.7801 108.051 57.1474 108.051 59.9521ZM119.843 57.8225C118.55 59.1892 118.603 61.3071 119.965 62.6583C121.275 63.9578 122.751 64.0055 124.297 62.7987C125.768 61.6512 125.162 60.657 123.523 61.5276C122.33 62.1605 121.007 62.0236 120.744 61.2396C120.614 60.852 121.241 60.7013 122.987 60.7013C125.219 60.7013 125.41 60.6243 125.41 59.7209C125.41 56.9412 121.833 55.7213 119.843 57.8225ZM127.419 57.795C127.275 58.328 127.155 59.2826 127.151 59.9173C127.148 60.5515 126.852 61.361 126.494 61.7162C125.769 62.4357 125.617 64.387 126.256 64.7784C126.482 64.9175 126.88 64.6381 127.139 64.158C127.504 63.4811 128.045 63.2848 129.547 63.2848C130.914 63.2848 131.485 63.4613 131.485 63.8846C131.485 64.5339 132.539 65.1095 132.961 64.6902C133.387 64.2678 133.255 62.065 132.787 61.7778C132.548 61.6314 132.353 60.4576 132.353 59.1689V56.8262H130.017C127.961 56.8262 127.649 56.9424 127.419 57.795ZM134.523 60.0555V63.2848H136.895C138.795 63.2848 139.355 63.1194 139.715 62.452C139.962 61.9939 140.164 61.4264 140.164 61.1909C140.164 60.3474 138.778 59.4096 137.53 59.4096C136.407 59.4096 136.259 59.2589 136.259 58.1179C136.259 57.1134 136.066 56.8262 135.391 56.8262C134.6 56.8262 134.523 57.1134 134.523 60.0555ZM140.856 57.9861C140.715 58.6505 140.685 59.9694 140.791 60.9166C140.896 61.8639 140.994 62.7844 141.007 62.9618C141.021 63.1392 141.432 63.2848 141.919 63.2848C142.743 63.2848 142.797 63.0613 142.679 60.1679C142.576 57.6701 142.408 57.0234 141.832 56.9145C141.342 56.8219 141.03 57.1642 140.856 57.9861ZM95.0317 58.7638C95.0317 59.1224 95.4175 59.4096 95.8996 59.4096C96.3818 59.4096 96.7676 59.1224 96.7676 58.7638C96.7676 58.4051 96.3818 58.1179 95.8996 58.1179C95.4175 58.1179 95.0317 58.4051 95.0317 58.7638ZM121.178 58.3952C120.102 58.8417 120.669 59.4096 122.191 59.4096C123.241 59.4096 123.688 59.2348 123.567 58.8714C123.375 58.2914 122.06 58.0292 121.178 58.3952ZM63.7859 59.5896C63.7859 60.1623 63.6674 60.9373 63.5225 61.3119C63.3237 61.8256 63.5372 61.993 64.3904 61.993C65.4211 61.993 65.5218 61.8398 65.5218 60.2708C65.5218 58.8357 65.3773 58.5485 64.6538 58.5485C64.025 58.5485 63.7859 58.8357 63.7859 59.5896ZM70.7446 59.3812C70.1635 60.4585 70.1705 60.5158 70.9772 61.3166C72.5204 62.8473 74.7862 61.299 73.7672 59.4096C73.1683 58.2992 71.3378 58.282 70.7446 59.3812ZM79.0056 59.3528C78.1529 60.9334 79.5785 62.3969 81.3239 61.7326C81.8434 61.5349 82.0204 61.0574 81.9275 60.108C81.8199 59.01 81.5821 58.7392 80.6313 58.6303C79.8228 58.5377 79.3263 58.7582 79.0056 59.3528ZM86.9529 59.1694C86.302 60.8525 87.8903 62.5989 89.2816 61.7295C90.9203 60.7056 90.2129 58.5485 88.2383 58.5485C87.6633 58.5485 87.0848 58.8279 86.9529 59.1694ZM101.831 58.8357C101.671 58.9933 101.541 59.668 101.541 60.3345C101.541 61.2693 101.79 61.6081 102.632 61.8178C104.502 62.2833 105.8 60.3629 104.492 59.0652C103.931 58.508 102.302 58.3676 101.831 58.8357ZM128.881 59.8402C128.881 60.5506 128.832 61.2774 128.773 61.4548C128.713 61.6322 129.103 61.8398 129.641 61.9156C130.516 62.0387 130.617 61.8716 130.617 60.3009C130.617 58.8357 130.475 58.5485 129.749 58.5485C129.074 58.5485 128.881 58.8357 128.881 59.8402ZM11.9032 61.1694C11.743 61.4268 11.8081 61.8324 12.0481 62.0706C12.5415 62.5601 14.3134 61.8139 14.3134 61.1168C14.3134 60.5459 12.2638 60.5907 11.9032 61.1694ZM24.4883 61.1694C24.0773 61.8294 24.8827 62.5033 25.7073 62.189C26.087 62.0447 26.504 61.6507 26.6342 61.314C26.9207 60.5739 24.9422 60.4404 24.4883 61.1694ZM95.0317 61.3171C95.0317 61.7567 95.4236 61.993 96.1526 61.993C97.5123 61.993 97.3634 60.9821 95.9743 60.7788C95.348 60.6876 95.0317 60.8684 95.0317 61.3171ZM136.259 61.3472C136.259 61.8329 136.563 62.0098 137.235 61.9156C137.772 61.8398 138.212 61.584 138.212 61.3472C138.212 61.1104 137.772 60.8546 137.235 60.7788C136.563 60.6845 136.259 60.8615 136.259 61.3472Z" fill="#74A857"/>
</svg>
