<svg width="190" height="34" viewBox="0 0 190 34" fill="none" xmlns="http://www.w3.org/2000/svg">
<path d="M150.392 33.886C156.052 33.886 160.64 29.4219 160.64 23.9152C160.64 18.4086 156.052 13.9445 150.392 13.9445C144.732 13.9445 140.145 18.4086 140.145 23.9152C140.145 29.4219 144.732 33.886 150.392 33.886Z" fill="#17294B"/>
<path d="M168.339 33.886H162.857L176.504 5.79166C178.95 1.58666 178.697 0.650215 184.972 0.650215H190L176.504 28.2671C174.335 32.6118 174.16 33.886 168.339 33.886Z" fill="#17294B"/>
<path fill-rule="evenodd" clip-rule="evenodd" d="M126.929 33.8856C131.589 33.7912 133.435 32.4279 135.611 28.0832L149.563 0.650215H144.521C138.92 0.650215 138.504 1.39186 136.752 4.51885V4.51914V4.51965C136.535 4.90615 136.298 5.32911 136.028 5.79159L126.929 24.1904V33.8856ZM109.337 10.3454L100.237 28.7443C97.7842 32.9492 95.8509 33.8852 91.7447 33.8856C87.6384 33.8852 85.7042 32.9492 83.2519 28.7443L74.1525 10.3454V0.650226C78.8131 0.744637 80.6594 2.10801 82.8346 6.45266L91.7447 24.117L100.655 6.45266C102.83 2.10801 104.676 0.744637 109.337 0.650226C113.997 0.744637 115.843 2.10801 118.019 6.45266L126.929 24.117V33.8856C122.823 33.8852 120.888 32.9492 118.436 28.7443L109.337 10.3454ZM74.1521 0.650532V10.3458L65.0527 28.7446C64.7833 29.207 64.5462 29.6299 64.3297 30.0164L64.3294 30.0166V30.0172L64.3289 30.0173C62.5767 33.1444 62.1612 33.886 56.56 33.886H51.5176L65.4701 6.45295C67.6453 2.10832 69.4916 0.744943 74.1521 0.650532Z" fill="#17294B"/>
<path fill-rule="evenodd" clip-rule="evenodd" d="M24.5122 10.7685C24.5122 9.73489 24.1581 9.51692 22.8074 9.51298V15.3845H23.6788C24.3051 15.3845 24.5122 15.2644 24.5122 14.5352V10.7685ZM22.7695 7.8512V7.85139H21.1404V24.4691H22.8074V16.197H24.9668C25.5337 16.197 26.217 15.3845 26.217 14.7937V10.2867C26.217 9.38677 25.457 7.8512 23.8681 7.8512H22.7695ZM22.8075 22.8219C24.4204 22.8219 24.7225 22.5626 24.7225 21.5774V17.8442C24.6998 17.1188 24.4535 16.9884 23.8067 17.0023H22.8075V16.1971H25.2221C25.841 16.1971 26.596 16.9113 26.596 17.588V22.0533C26.596 23.3111 25.1883 24.469 24.0148 24.469H22.8075V22.8219ZM37.8585 7.8512H39.5478V24.4689H37.8585V7.8512ZM31.4851 7.85139H33.1745V13.9618H34.3621C35.9772 13.9618 36.673 15.2015 36.673 16.426V22.3108C36.673 23.4394 36.054 24.469 34.3621 24.469H33.1745V24.4691H31.4851V7.85139ZM33.1745 22.8625H34.1726C34.7102 22.8625 35.044 22.4329 35.044 21.2442V16.5061C35.044 16.1016 34.5171 15.5065 33.9806 15.5065H33.1745V22.8625ZM5.30475 7.88581H3.63783V15.2286H1.66789V7.88592H0.000976562V24.4368H1.66789V17.0917H3.63783V24.4367H5.30475V7.88581ZM44.9239 7.8512H49.3007V9.63961H46.5359V15.2287H48.763V17.0917H46.5359V22.6805H49.3003V24.4689H46.5359V24.4691H44.8467V7.85139H44.9239V7.8512ZM10.4445 10.0197C10.4445 10.0197 10.4445 7.85125 13.1705 7.85125C15.8966 7.85125 15.8966 10.0197 15.8966 10.0197V22.3005C15.8966 22.3005 15.8966 24.4689 13.1705 24.4689C10.4445 24.4689 10.4445 22.3005 10.4445 22.3005V10.0197ZM12.1336 10.4781C12.1336 10.4781 12.1336 9.44183 13.1185 9.44183C14.1033 9.44183 14.1033 10.4781 14.1033 10.4781V21.9579C14.1033 21.9579 14.1033 22.9217 13.1185 22.9217C12.1336 22.9217 12.1336 21.9579 12.1336 21.9579V10.4781Z" fill="#17294B"/>
</svg>
