<svg width="187" height="26" viewBox="0 0 187 26" fill="none" xmlns="http://www.w3.org/2000/svg">
<path d="M0 12.8852C0.018607 10.5891 0.729393 8.76159 2.12212 7.40233C3.51578 6.04309 5.35695 5.36347 7.6577 5.36347C9.90173 5.36347 11.7242 6.10738 13.156 7.60438C14.5767 9.10138 15.2866 11.0117 15.2866 13.3444C15.2866 15.7323 14.5581 17.6517 13.0993 19.0844C11.6405 20.5172 9.73327 21.2335 7.37766 21.2335C5.64722 21.2335 4.17912 20.8202 2.992 20.0029C1.80395 19.1763 0.9257 18.1293 0.364697 16.8435L2.49612 15.7506C3.60882 17.7803 5.236 18.7905 7.37673 18.7905C8.85412 18.7905 10.0422 18.3773 10.94 17.5415C11.8368 16.7057 12.3327 15.5669 12.4257 14.1159H0.0651243C0.018607 13.8128 0 13.3995 0 12.8852ZM4.33822 8.86259C3.46834 9.62488 2.992 10.6443 2.88873 11.9025H12.3225C12.1457 10.5984 11.6498 9.57897 10.8181 8.83504C9.98547 8.09114 8.93877 7.71459 7.6763 7.71459C6.32078 7.71459 5.20809 8.10032 4.33822 8.86259ZM17.765 21.2335C17.2226 21.2335 16.7649 21.0498 16.3909 20.6733C16.0169 20.2967 15.8392 19.8467 15.8392 19.314C15.8392 18.763 16.0252 18.3038 16.3909 17.9364C16.7649 17.5691 17.2226 17.3946 17.765 17.3946C18.326 17.3946 18.793 17.5783 19.168 17.9548C19.542 18.3313 19.7187 18.7813 19.7187 19.314C19.7187 19.8467 19.5326 20.3059 19.167 20.6733C18.8023 21.0498 18.3353 21.2335 17.765 21.2335ZM33.66 20.9763V18.7079C33.192 19.3783 32.4822 19.966 31.5285 20.4712C30.574 20.9763 29.4809 21.2335 28.2556 21.2335C25.899 21.2335 23.9825 20.4987 22.4968 19.0385C21.0185 17.5783 20.2797 15.6679 20.2797 13.3169C20.2797 11.0392 21.0277 9.14729 22.5145 7.63193C24.0011 6.11657 25.899 5.36347 28.1988 5.36347C30.4996 5.36347 32.2663 6.09819 33.5204 7.57683V0H36.2966V20.9763H33.66ZM23.0847 13.3169C23.0847 14.9057 23.5806 16.219 24.5621 17.2476C25.5436 18.2762 26.8061 18.7997 28.3486 18.7997C29.9107 18.7997 31.1825 18.2854 32.1631 17.266C33.1455 16.2466 33.6414 14.9241 33.6414 13.3169C33.6414 11.7097 33.1455 10.3872 32.1547 9.35854C31.163 8.32991 29.8921 7.80643 28.3589 7.80643C26.8155 7.80643 25.5631 8.32073 24.5724 9.35854C23.5806 10.3872 23.0847 11.7097 23.0847 13.3169ZM53.6504 14.1159H41.2888C41.3829 15.5669 41.8787 16.7149 42.7756 17.5415C43.6733 18.3773 44.8614 18.7905 46.3388 18.7905C48.4795 18.7905 50.1067 17.7803 51.2194 15.7506L53.3508 16.8435C52.7898 18.1293 51.9106 19.1763 50.7235 20.0029C49.5364 20.8294 48.0776 21.2335 46.3378 21.2335C43.9822 21.2335 42.075 20.5172 40.6069 19.0844C39.1481 17.6517 38.4187 15.7323 38.4187 13.3444C38.4187 11.0117 39.1295 9.10138 40.5511 7.60438C41.9717 6.11656 43.8045 5.36347 46.0485 5.36347C48.3483 5.36347 50.1905 6.04309 51.5841 7.40233C52.9768 8.76159 53.6773 10.5891 53.7053 12.8852C53.7053 13.3995 53.6867 13.8128 53.6495 14.1159H53.6504ZM46.0206 7.71459C44.7581 7.71459 43.7106 8.09114 42.8788 8.83504C42.0471 9.57897 41.5512 10.6076 41.3735 11.9025H50.8072C50.7142 10.6443 50.2276 9.62488 49.3587 8.86259C48.4981 8.10032 47.3864 7.71459 46.0206 7.71459ZM56.5391 5.62063L61.1016 17.6793L65.6277 5.62063H68.5165L62.5603 20.9763H59.5218L53.4727 5.62063H56.5391ZM83.6541 14.1159H71.2935C71.3866 15.5669 71.8917 16.7149 72.7802 17.5415C73.678 18.3773 74.8651 18.7905 76.3434 18.7905C78.4832 18.7905 80.1114 17.7803 81.2231 15.7506L83.3555 16.8435C82.7945 18.1293 81.9153 19.1763 80.7281 20.0029C79.5401 20.8294 78.0823 21.2335 76.3425 21.2335C73.9869 21.2335 72.0787 20.5172 70.6209 19.0844C69.1621 17.6517 68.4327 15.7323 68.4327 13.3444C68.4327 11.0117 69.1435 9.10138 70.5641 7.60438C71.9857 6.11656 73.8185 5.36347 76.0625 5.36347C78.3623 5.36347 80.2044 6.04309 81.598 7.40233C82.9908 8.76159 83.6917 10.5891 83.7192 12.8852C83.71 13.3995 83.6917 13.8128 83.6541 14.1159ZM76.0253 7.71459C74.7628 7.71459 73.7152 8.09114 72.8835 8.83504C72.0508 9.57897 71.5559 10.6076 71.3781 11.9025H80.8212C80.7281 10.6443 80.2416 9.62488 79.3717 8.86259C78.5121 8.10032 77.3901 7.71459 76.0253 7.71459ZM88.4785 0H85.7019V20.9763H88.4785V0ZM90.6115 13.3169C90.6115 11.0025 91.3779 9.10138 92.9014 7.60438C94.435 6.11656 96.3517 5.36347 98.6709 5.36347C101.027 5.36347 102.963 6.10738 104.468 7.60438C105.973 9.10138 106.73 10.9933 106.73 13.2893C106.73 15.5853 105.964 17.4864 104.42 18.9834C102.878 20.4895 100.952 21.2335 98.6325 21.2335C96.2958 21.2335 94.3699 20.4987 92.8647 19.0201C91.3595 17.5507 90.6115 15.6496 90.6115 13.3169ZM93.4165 13.3169C93.4165 14.9057 93.9116 16.2098 94.8925 17.2384C95.8751 18.267 97.1365 18.7722 98.6801 18.7722C100.223 18.7722 101.476 18.2578 102.467 17.2384C103.449 16.219 103.944 14.9057 103.944 13.3169C103.944 11.728 103.449 10.4147 102.467 9.38608C101.485 8.35746 100.223 7.83398 98.6801 7.83398C97.1181 7.83398 95.8567 8.34828 94.8833 9.36772C93.9015 10.3872 93.4165 11.7097 93.4165 13.3169ZM111.648 19.0844V26H108.872V5.62063H111.526V7.83398C112.817 6.19004 114.64 5.36347 117.024 5.36347C119.344 5.36347 121.232 6.09819 122.69 7.55846C124.15 9.01875 124.878 10.929 124.878 13.2802C124.878 15.5578 124.15 17.4497 122.69 18.965C121.232 20.4804 119.297 21.2335 116.903 21.2335C115.679 21.2335 114.613 21.013 113.705 20.5723C112.799 20.1314 112.116 19.6354 111.648 19.0844ZM113.004 9.34936C112.022 10.378 111.526 11.7005 111.526 13.3077C111.526 14.9149 112.022 16.2282 113.004 17.2568C113.986 18.2762 115.257 18.7905 116.819 18.7905C118.399 18.7905 119.671 18.2762 120.633 17.2568C121.597 16.2374 122.083 14.9149 122.083 13.3077C122.083 11.7005 121.597 10.378 120.624 9.34936C119.652 8.32073 118.38 7.79725 116.828 7.79725C115.275 7.79725 113.986 8.32073 113.004 9.34936ZM137.94 11.1035V20.9763H135.163V11.1311C135.163 10.1208 134.948 9.32181 134.509 8.75241C134.07 8.18301 133.414 7.88908 132.536 7.88908C131.639 7.88908 130.956 8.19219 130.488 8.8075C130.021 9.42281 129.787 10.2494 129.787 11.3055V20.9763H127.011V5.62063H129.787V6.99823C130.564 5.96962 131.722 5.44613 133.265 5.44613C135.117 5.44613 136.397 6.12575 137.118 7.48499C137.997 6.12575 139.324 5.44613 141.119 5.44613C142.83 5.44613 144.093 5.93288 144.907 6.9064C145.711 7.8799 146.121 9.17483 146.121 10.782V20.9671H143.345V11.1035C143.345 8.96358 142.456 7.88908 140.689 7.88908C139.81 7.88908 139.137 8.18301 138.67 8.76159C138.202 9.34936 137.959 10.13 137.94 11.1035ZM163.42 14.1159H151.058C151.152 15.5669 151.657 16.7149 152.545 17.5415C153.443 18.3773 154.631 18.7905 156.107 18.7905C158.249 18.7905 159.876 17.7803 160.989 15.7506L163.12 16.8435C162.559 18.1293 161.68 19.1763 160.493 20.0029C159.306 20.8294 157.846 21.2335 156.107 21.2335C153.752 21.2335 151.844 20.5172 150.376 19.0844C148.917 17.6517 148.187 15.7323 148.187 13.3444C148.187 11.0117 148.899 9.10138 150.32 7.60438C151.74 6.11656 153.574 5.36347 155.818 5.36347C158.118 5.36347 159.959 6.04309 161.353 7.40233C162.746 8.76159 163.447 10.5891 163.476 12.8852C163.476 13.3995 163.456 13.8128 163.42 14.1159ZM155.799 7.71459C154.536 7.71459 153.489 8.09114 152.657 8.83504C151.826 9.57897 151.33 10.6076 151.152 11.9025H160.586C160.493 10.6443 160.007 9.62488 159.137 8.86259C158.276 8.10032 157.154 7.71459 155.799 7.71459ZM175.575 20.9763V11.1311C175.575 8.97276 174.509 7.94419 172.797 7.74214C170.657 7.49418 169.487 8.15539 169.095 8.62379C168.6 9.22074 168.235 10.1851 168.235 11.2137V20.9671H165.457V5.62063H168.235V6.99823C168.778 6.22677 169.571 5.74002 170.627 5.54716C170.983 5.48287 173.058 5.44613 173.471 5.44613C175.145 5.44613 176.435 6.46556 177.163 7.48499C178.173 8.90849 178.351 10.7729 178.351 12.3984V20.9671H175.575V20.9763ZM184.111 3.26952V5.62063H187V7.94419H184.111V16.5864C184.111 17.3119 184.223 17.8354 184.465 18.1477C184.699 18.4599 185.168 18.6252 185.869 18.6252H186.982V20.9763C186.962 20.9763 186.738 21.0039 186.326 21.0498C185.906 21.0957 185.522 21.1233 185.177 21.1233C183.793 21.1233 182.811 20.8019 182.221 20.1589C181.642 19.5161 181.343 18.5609 181.343 17.2751V7.94419H179.763V5.62063H181.343V3.26952H184.111Z" fill="black"/>
</svg>
